<?xml version="1.0" encoding="UTF-8" standalone="no"?>
<svg
   xmlns:dc="http://purl.org/dc/elements/1.1/"
   xmlns:cc="http://creativecommons.org/ns#"
   xmlns:rdf="http://www.w3.org/1999/02/22-rdf-syntax-ns#"
   xmlns:svg="http://www.w3.org/2000/svg"
   xmlns="http://www.w3.org/2000/svg"
   xmlns:sodipodi="http://sodipodi.sourceforge.net/DTD/sodipodi-0.dtd"
   xmlns:inkscape="http://www.inkscape.org/namespaces/inkscape"
   version="1.1"
   x="0px"
   y="0px"
   viewBox="0 0 893.53308 775.75151"
   id="svg2"
   inkscape:version="0.91 r13725"
   sodipodi:docname="data_analysis_info.svg"
   width="893.53308"
   height="775.75153">
  <metadata
     id="metadata12">
    <rdf:RDF>
      <cc:Work
         rdf:about="">
        <dc:format>image/svg+xml</dc:format>
        <dc:type
           rdf:resource="http://purl.org/dc/dcmitype/StillImage" />
        <dc:title></dc:title>
      </cc:Work>
    </rdf:RDF>
  </metadata>
  <defs
     id="defs10">
    <style
       id="style4161"
       type="text/css">
   
    .fil1 {fill:none}
    .fil0 {fill:black}
   
  </style>
  </defs>
  <sodipodi:namedview
     pagecolor="#ffffff"
     bordercolor="#666666"
     borderopacity="1"
     objecttolerance="10"
     gridtolerance="10"
     guidetolerance="10"
     inkscape:pageopacity="0"
     inkscape:pageshadow="2"
     inkscape:window-width="640"
     inkscape:window-height="480"
     id="namedview8"
     showgrid="false"
     fit-margin-top="5"
     fit-margin-left="5"
     fit-margin-right="5"
     fit-margin-bottom="5"
     inkscape:zoom="0.85125"
     inkscape:cx="655.03058"
     inkscape:cy="223.41794"
     inkscape:current-layer="svg2" />
  <path
     inkscape:connector-curvature="0"
     d="m 369.03985,165.44096 0,35.16224 0,35.16226 0,35.16225 c 0,11.58889 32.5837,14.65093 49.81318,14.65093 14.22314,0 38.89533,-2.09215 47.07641,-9.34143 6.5343,4.92565 21.95882,6.41125 32.03866,6.41125 13.05984,0 35.16225,-2.46721 35.16225,-11.72075 l 0,-70.32451 c 0,-9.25352 -22.10241,-11.72076 -35.16225,-11.72076 -8.85208,0 -21.8387,1.14278 -29.30188,4.75279 l 0,-28.19427 c 0,-11.5889 -32.58368,-14.65095 -49.81319,-14.65095 -17.22948,0 -49.81318,3.06205 -49.81318,14.65095 z m 5.86038,7.45731 c 0.0881,0.0468 0.19054,0.0878 0.27837,0.13487 0.49227,0.25786 1.00212,0.50986 1.54128,0.75307 0.0996,0.0439 0.19343,0.0938 0.29594,0.13775 0.63291,0.27542 1.29809,0.53913 1.98665,0.79406 0.17279,0.0646 0.34872,0.12599 0.5216,0.18767 0.59776,0.21382 1.21601,0.41902 1.84893,0.61827 0.13487,0.041 0.26373,0.085 0.39854,0.12599 0.75012,0.22846 1.52661,0.4454 2.31775,0.65344 0.18166,0.0468 0.36922,0.0938 0.55381,0.14062 0.67981,0.17279 1.37426,0.33698 2.0775,0.4952 0.16414,0.0382 0.32525,0.0761 0.49228,0.11135 0.8351,0.18166 1.68486,0.35457 2.54926,0.51864 0.18167,0.035 0.36629,0.0674 0.55087,0.0996 0.73841,0.13487 1.47975,0.26666 2.2328,0.38679 0.18742,0.0293 0.37508,0.0614 0.56554,0.0938 0.88784,0.14063 1.78156,0.2725 2.68405,0.39851 0.16414,0.024 0.32817,0.0439 0.49227,0.0646 0.77649,0.10247 1.55592,0.2023 2.33537,0.29301 0.20517,0.024 0.40728,0.0499 0.60946,0.0703 0.90251,0.10247 1.80206,0.19631 2.70164,0.28423 0.15527,0.0144 0.30766,0.0264 0.46297,0.041 0.77064,0.0732 1.53541,0.13775 2.29727,0.19919 0.22845,0.0168 0.45418,0.0382 0.6798,0.0528 0.88199,0.0674 1.75517,0.12886 2.61665,0.18166 0.10559,0.005 0.20518,0.012 0.3106,0.0168 0.7853,0.0468 1.55887,0.0878 2.32363,0.12599 0.20519,0.01 0.40731,0.0192 0.6095,0.0293 0.83803,0.0382 1.66434,0.0703 2.46721,0.0967 0.0646,0.002 0.12887,0.002 0.19341,0.007 0.74721,0.024 1.47095,0.0382 2.18299,0.0528 0.19918,0.002 0.39558,0.005 0.58898,0.01 0.74427,0.0144 1.48268,0.0192 2.1859,0.0192 0.70326,0 1.44167,-0.005 2.19179,-0.0168 0.19631,-0.002 0.39266,-0.005 0.58899,-0.01 0.71203,-0.012 1.43577,-0.0293 2.18298,-0.0528 0.0646,-0.002 0.12886,-0.002 0.19341,-0.005 0.80287,-0.0264 1.6292,-0.0586 2.46721,-0.0967 0.20207,-0.01 0.40437,-0.0168 0.6095,-0.0293 0.76476,-0.0382 1.53833,-0.0792 2.32363,-0.12599 0.10248,-0.005 0.20519,-0.012 0.31061,-0.0168 0.86147,-0.0528 1.73758,-0.11423 2.61664,-0.18167 0.22558,-0.0168 0.45418,-0.0353 0.67981,-0.0528 0.76186,-0.0614 1.52662,-0.12886 2.29726,-0.19918 0.15526,-0.0144 0.30768,-0.0264 0.46297,-0.041 0.89958,-0.0878 1.79914,-0.18166 2.70164,-0.28423 0.20518,-0.024 0.40729,-0.0468 0.60948,-0.0703 0.77944,-0.0907 1.55887,-0.18742 2.33536,-0.29301 0.16415,-0.024 0.32817,-0.041 0.49227,-0.0646 0.89958,-0.12311 1.79328,-0.25493 2.68405,-0.39851 0.19054,-0.0293 0.37799,-0.0614 0.56553,-0.0938 0.75013,-0.1231 1.49439,-0.252 2.2328,-0.38679 0.18167,-0.035 0.36628,-0.0674 0.55088,-0.0996 0.86146,-0.16415 1.71123,-0.33695 2.54925,-0.51864 0.16703,-0.0353 0.32819,-0.0761 0.49229,-0.11135 0.70616,-0.15815 1.39768,-0.32524 2.07749,-0.4952 0.18454,-0.0468 0.36921,-0.0907 0.55382,-0.14062 0.79114,-0.20806 1.5647,-0.42488 2.31777,-0.65344 0.13487,-0.041 0.26665,-0.085 0.39851,-0.12599 0.63292,-0.1963 1.24824,-0.40436 1.84894,-0.61825 0.1759,-0.0614 0.35164,-0.12311 0.52159,-0.18742 0.68858,-0.25493 1.35374,-0.51864 1.98665,-0.79409 0.10248,-0.0439 0.1963,-0.091 0.29594,-0.13775 0.53623,-0.24321 1.04901,-0.49226 1.54129,-0.75305 0.0878,-0.0468 0.19054,-0.0878 0.27837,-0.13486 l 0,27.70196 c 0,2.55222 -15.404,8.79059 -43.95281,8.79059 -28.54883,0 -43.95869,-6.23837 -43.95869,-8.79059 l 0,-27.70492 z m 96.4061,35.76295 c 0.28716,0.10248 0.57432,0.20518 0.87026,0.30182 0.8146,0.26957 1.66141,0.52156 2.54047,0.75305 0.19918,0.0528 0.38385,0.11135 0.58606,0.16127 1.08121,0.27251 2.20056,0.51571 3.34626,0.73548 0.29595,0.0557 0.59481,0.10559 0.89078,0.15814 0.89077,0.16127 1.7874,0.30768 2.69576,0.43952 0.35747,0.0528 0.70912,0.10249 1.06659,0.15238 1.0373,0.13776 2.07458,0.26079 3.11186,0.36629 0.15239,0.0144 0.30182,0.0351 0.45418,0.0499 1.18674,0.11423 2.35881,0.20517 3.51916,0.2813 0.32819,0.0192 0.64464,0.0382 0.96989,0.0557 0.86439,0.0499 1.71123,0.0907 2.5434,0.12023 0.32232,0.012 0.64466,0.024 0.96111,0.0322 1.07244,0.0353 2.12145,0.0557 3.10599,0.0557 0.98455,0 2.03354,-0.0192 3.10893,-0.0499 0.31646,-0.01 0.63877,-0.0192 0.96111,-0.0322 0.83217,-0.0293 1.67899,-0.0703 2.5434,-0.12023 0.32525,-0.0168 0.64171,-0.0351 0.96988,-0.0557 1.16036,-0.0761 2.33243,-0.16703 3.51917,-0.2813 0.15238,-0.0144 0.3018,-0.035 0.45416,-0.0499 1.03731,-0.10559 2.07459,-0.22846 3.11187,-0.36628 0.35748,-0.0468 0.7091,-0.0996 1.06659,-0.15238 0.90836,-0.13175 1.80499,-0.27837 2.69577,-0.43952 0.29888,-0.0528 0.59776,-0.10248 0.89078,-0.15815 1.1457,-0.21982 2.26503,-0.46296 3.34628,-0.73548 0.20217,-0.0499 0.38677,-0.11135 0.58603,-0.16126 0.87905,-0.23158 1.72295,-0.48349 2.54047,-0.75305 0.29595,-0.0996 0.58311,-0.19919 0.87026,-0.30182 0.76771,-0.27836 1.4944,-0.57432 2.183,-0.89077 0.14357,-0.0674 0.31646,-0.11712 0.4571,-0.18456 l 0,16.35924 c -0.89663,2.08922 -11.66801,5.95416 -29.3048,5.95416 -17.70712,0 -28.50194,-3.89717 -29.30188,-5.86037 l 0,-16.45888 c 0.14063,0.0674 0.31353,0.12024 0.45711,0.18455 0.68858,0.31938 1.41529,0.61534 2.183,0.89077 z m -2.64011,27.10424 0,-4.75276 c 7.46318,3.60998 20.4498,4.75276 29.30188,4.75276 8.8521,0 21.83869,-1.14278 29.30188,-4.75276 l 0,16.37682 c -0.89371,2.09215 -11.66509,5.95706 -29.30188,5.95706 -17.70712,0 -28.50194,-3.89714 -29.30188,-5.86037 l 0,-11.72075 z m -93.76599,-27.70493 c 10.17947,5.52633 31.24167,7.19363 43.9528,7.19363 12.71116,0 33.77334,-1.6673 43.95281,-7.19363 l 0,27.70493 c 0,2.55219 -15.40397,8.79057 -43.95281,8.79057 -28.5488,0 -43.9528,-6.23838 -43.9528,-8.79057 l 0,-27.70493 z m 43.9528,71.65773 c -28.5488,0 -43.9528,-6.23836 -43.9528,-8.79055 l 0,-27.70493 c 10.17947,5.52633 31.24167,7.19363 43.9528,7.19363 12.71116,0 33.77334,-1.6673 43.95281,-7.19363 l 0,27.70493 c 0,2.55219 -15.40397,8.79055 -43.95281,8.79055 z m 79.11507,-2.93017 c -17.70712,0 -28.50194,-3.89714 -29.30188,-5.86038 l 0,-16.47351 c 7.46318,3.60998 20.4498,4.75276 29.30188,4.75276 8.8521,0 21.83869,-1.14278 29.30188,-4.75276 l 0,16.37682 c -0.89371,2.09215 -11.66509,5.95707 -29.30188,5.95707 z m 0,-82.04527 c 17.32912,0 28.0331,3.73014 29.25207,5.84866 -0.0352,0.0674 -0.0909,0.13776 -0.14651,0.20807 -0.044,0.0557 -0.0791,0.11134 -0.13772,0.1699 -0.0821,0.085 -0.19633,0.17278 -0.30474,0.26371 -0.0762,0.0615 -0.1377,0.12023 -0.22563,0.18167 -0.12602,0.091 -0.28129,0.18454 -0.43366,0.27544 -0.10549,0.0646 -0.19926,0.12599 -0.31647,0.19342 -0.16995,0.0938 -0.3692,0.19055 -0.5626,0.28716 -0.13186,0.0646 -0.25492,0.13199 -0.39851,0.1963 -0.21096,0.0967 -0.4483,0.19342 -0.68272,0.29009 -0.1641,0.0674 -0.31646,0.13487 -0.49228,0.20206 -0.24907,0.0967 -0.5245,0.19054 -0.797,0.28715 -0.19341,0.0674 -0.378,0.13776 -0.58312,0.20519 -0.29009,0.0967 -0.60947,0.19054 -0.92007,0.28423 -0.21977,0.0674 -0.42781,0.13487 -0.65929,0.19918 -0.32525,0.0938 -0.68273,0.18167 -1.03143,0.2725 -0.24906,0.0646 -0.48934,0.13174 -0.75013,0.19342 -0.36041,0.0879 -0.75306,0.16991 -1.13398,0.25493 -0.27837,0.0614 -0.54501,0.12598 -0.83804,0.18454 -0.40143,0.0821 -0.83216,0.16127 -1.25412,0.24029 -0.30181,0.0557 -0.59189,0.11423 -0.90249,0.1699 -0.44246,0.0761 -0.91423,0.14639 -1.3772,0.21694 -0.32231,0.0499 -0.63292,0.10248 -0.96695,0.14951 -0.49228,0.0703 -1.01385,0.13175 -1.52663,0.19342 -0.33403,0.041 -0.65049,0.085 -0.99334,0.12311 -0.53621,0.0586 -1.09882,0.10847 -1.65847,0.16126 -0.35163,0.0322 -0.68568,0.0703 -1.04608,0.0996 -0.56554,0.0468 -1.16037,0.0821 -1.74639,0.12023 -0.37799,0.024 -0.74134,0.0557 -1.12814,0.0761 -0.62706,0.0351 -1.28342,0.0557 -1.93098,0.0792 -0.37213,0.0144 -0.7267,0.0351 -1.10762,0.0439 -1.04314,0.0353 -2.10681,0.0499 -3.19976,0.0499 -1.10762,0 -2.18591,-0.0144 -3.23786,-0.0439 -15.65014,-0.43077 -25.14395,-3.91477 -26.0318,-5.76957 1.03728,-2.10387 11.76763,-5.90725 29.26966,-5.90725 z m -79.11507,-38.09243 c 28.54884,0 43.95281,6.23836 43.95281,8.79057 0,2.55219 -15.40397,8.79056 -43.95281,8.79056 -28.5488,0 -43.9528,-6.23837 -43.9528,-8.79056 0,-2.55221 15.404,-8.79057 43.9528,-8.79057 z"
     id="path10"
     style="fill:#e6e6e6" />
  <text
     xml:space="preserve"
     style="color:#000000;font-style:normal;font-variant:normal;font-weight:normal;font-stretch:normal;font-size:35.99665833px;line-height:100%;font-family:Arial;-inkscape-font-specification:'Arial, Normal';text-indent:0;text-align:start;text-decoration:none;text-decoration-line:none;text-decoration-style:solid;text-decoration-color:#000000;letter-spacing:0px;word-spacing:0px;text-transform:none;direction:ltr;block-progression:tb;writing-mode:lr-tb;baseline-shift:baseline;text-anchor:start;white-space:normal;clip-rule:nonzero;display:inline;overflow:visible;visibility:visible;opacity:1;isolation:auto;mix-blend-mode:normal;color-interpolation:sRGB;color-interpolation-filters:linearRGB;solid-color:#000000;solid-opacity:1;fill:#e6e6e6;fill-opacity:1;fill-rule:nonzero;stroke:none;stroke-width:1px;stroke-linecap:butt;stroke-linejoin:miter;stroke-miterlimit:4;stroke-dasharray:none;stroke-dashoffset:0;stroke-opacity:1;marker:none;color-rendering:auto;image-rendering:auto;shape-rendering:auto;text-rendering:auto;enable-background:accumulate"
     x="412.43439"
     y="333.20743"
     id="text4164"
     sodipodi:linespacing="100%"><tspan
       sodipodi:role="line"
       id="tspan4166"
       x="412.43439"
       y="333.20743">Data</tspan></text>
  <path
     id="path4148"
     d="m 273.64605,562.3784 -132.19205,0 c -1.76632,0 -3.19985,1.43353 -3.19985,3.19985 l 0,88.71894 c 0,1.76632 1.43353,3.19985 3.19985,3.19985 l 45.48261,0 0,7.89722 -4.99336,7.07486 c -0.51677,0.73276 -0.58237,1.69272 -0.16959,2.48948 0.41278,0.79516 1.23354,1.29594 2.1311,1.29594 l 47.29213,0 c 0.89916,0 1.72152,-0.50078 2.1327,-1.30074 0.41278,-0.79836 0.34398,-1.75992 -0.17759,-2.49268 l -4.98696,-7.00767 0,-7.95641 45.48261,0 c 1.76632,0 3.19985,-1.43353 3.19985,-3.19985 l 0,-88.71894 c -0.002,-1.76632 -1.43513,-3.19985 -3.20145,-3.19985 z m -85.11111,109.07477 c 0,0 2.97905,-4.2926 3.05265,-4.49899 l 31.89127,0 c 0.0752,0.23359 3.06225,4.49899 3.06225,4.49899 l -38.00617,0 z m 34.82873,-6.09731 -31.62729,0 0,-7.85722 31.62729,0 0,7.85722 z m 47.08254,-14.25692 -125.79237,0 0,-82.32085 125.79077,0 0,82.32085 z m -96.67856,-21.20218 c -4.42219,0 -8.01882,3.59663 -8.01882,8.01722 0,4.42218 3.59663,8.01881 8.01882,8.01881 4.42058,0 8.01721,-3.59663 8.01721,-8.01881 0,-1.30554 -0.34398,-2.52148 -0.90076,-3.61263 l 12.5594,-12.5594 c 2.31829,1.64472 5.14376,2.62228 8.19641,2.62228 7.01566,0 12.84578,-5.11656 13.99133,-11.81224 l 18.09193,0 c 1.02715,3.24465 4.03021,5.61893 7.60923,5.61893 4.42219,0 8.01882,-3.59662 8.01882,-8.01881 0,-4.42059 -3.59663,-8.01722 -8.01882,-8.01722 -3.57902,0 -6.58208,2.37269 -7.60923,5.61733 l -18.09193,0 c -1.14555,-6.69408 -6.97567,-11.81063 -13.99133,-11.81063 -2.94386,0 -5.68133,0.89916 -7.95162,2.43828 L 180.8841,585.57569 c 0.55678,-1.09115 0.90076,-2.30709 0.90076,-3.61263 0,-4.42219 -3.59663,-8.01881 -8.01721,-8.01881 -4.42219,0 -8.01882,3.59662 -8.01882,8.01881 0,4.42059 3.59663,8.01722 8.01882,8.01722 1.36473,0 2.63027,-0.37439 3.75662,-0.97756 l 12.70979,12.70979 c -1.75352,2.36309 -2.80467,5.27815 -2.80467,8.4396 0,3.05425 0.97755,5.87812 2.62227,8.1964 l -12.52579,12.5258 c -1.12795,-0.60317 -2.39509,-0.97755 -3.75822,-0.97755 z m 67.56475,-24.56202 c 2.65748,0 4.81897,2.1615 4.81897,4.81737 0,2.65747 -2.16149,4.81897 -4.81897,4.81897 -2.65587,0 -4.81736,-2.1615 -4.81736,-4.81897 0,-2.65587 2.16149,-4.81737 4.81736,-4.81737 z m -67.56475,37.3966 c -2.65748,0 -4.81897,-2.16149 -4.81897,-4.81896 0,-2.65588 2.16149,-4.81737 4.81897,-4.81737 2.65587,0 4.81736,2.16149 4.81736,4.81737 0,2.65747 -2.16149,4.81896 -4.81736,4.81896 z m 38.88133,-32.57923 c 0,6.07171 -4.93896,11.01227 -11.01067,11.01227 -6.07171,0 -11.01227,-4.94056 -11.01227,-11.01227 0,-6.07171 4.94056,-11.01067 11.01227,-11.01067 6.07171,0 11.01067,4.93896 11.01067,11.01067 z m -43.7003,-28.18745 c 0,-2.65747 2.16149,-4.81897 4.81897,-4.81897 2.65587,0 4.81736,2.1615 4.81736,4.81897 0,2.65587 -2.16149,4.81737 -4.81736,4.81737 -2.65748,-0.002 -4.81897,-2.1615 -4.81897,-4.81737 z m 106.35329,115.58805 -20.00864,-18.08393 c -0.58717,-0.53277 -1.35353,-0.82716 -2.14549,-0.82716 l -91.19563,0 c -0.79196,0 -1.55832,0.29439 -2.14549,0.82716 l -20.26623,18.31752 c -0.98235,0.88796 -1.31674,2.28789 -0.83996,3.52303 0.47518,1.23355 1.66232,2.04951 2.98546,2.04951 l 131.72808,0 c 0.0128,0 0.0256,0 0.032,0 1.76792,0 3.19985,-1.43354 3.19985,-3.19985 0,-1.07355 -0.53117,-2.0271 -1.34394,-2.60628 z m -125.30438,-0.59197 13.18496,-11.91783 88.73335,0 13.18496,11.91783 -115.10327,0 z"
     inkscape:connector-curvature="0"
     style="color:#000000;clip-rule:nonzero;display:inline;overflow:visible;visibility:visible;opacity:1;isolation:auto;mix-blend-mode:normal;color-interpolation:sRGB;color-interpolation-filters:linearRGB;solid-color:#000000;solid-opacity:1;fill:#e6e6e6;fill-opacity:1;fill-rule:nonzero;stroke-width:1;stroke-linecap:butt;stroke-linejoin:miter;stroke-miterlimit:4;stroke-dasharray:none;stroke-dashoffset:0;stroke-opacity:1;color-rendering:auto;image-rendering:auto;shape-rendering:auto;text-rendering:auto;enable-background:accumulate" />
  <text
     sodipodi:linespacing="100%"
     id="text4179"
     y="747.89172"
     x="134.24348"
     style="color:#000000;font-style:normal;font-variant:normal;font-weight:normal;font-stretch:normal;font-size:35.99665833px;line-height:100%;font-family:Arial;-inkscape-font-specification:'Arial, Normal';text-indent:0;text-align:start;text-decoration:none;text-decoration-line:none;text-decoration-style:solid;text-decoration-color:#000000;letter-spacing:0px;word-spacing:0px;text-transform:none;direction:ltr;block-progression:tb;writing-mode:lr-tb;baseline-shift:baseline;text-anchor:start;white-space:normal;clip-rule:nonzero;display:inline;overflow:visible;visibility:visible;opacity:1;isolation:auto;mix-blend-mode:normal;color-interpolation:sRGB;color-interpolation-filters:linearRGB;solid-color:#000000;solid-opacity:1;fill:#e6e6e6;fill-opacity:1;fill-rule:nonzero;stroke:none;stroke-width:1px;stroke-linecap:butt;stroke-linejoin:miter;stroke-miterlimit:4;stroke-dasharray:none;stroke-dashoffset:0;stroke-opacity:1;marker:none;color-rendering:auto;image-rendering:auto;shape-rendering:auto;text-rendering:auto;enable-background:accumulate"
     xml:space="preserve"><tspan
       y="747.89172"
       x="134.24348"
       id="tspan4181"
       sodipodi:role="line">Compute</tspan></text>
  <path
     id="path4165"
     d="m 1222.3281,254.52868 17.8062,-17.80622 c 0.05,-0.0499 0.087,-0.0874 0.1373,-0.12478 l 9.0092,-9.00917 -9.0217,-9.02165 c -0.05,-0.0374 -0.087,-0.0749 -0.1372,-0.12478 l -17.8063,-17.80621 0,17.21974 -36.9226,0 0,19.45332 36.9226,0 0,17.21975 z"
     class="fil0"
     inkscape:connector-curvature="0"
     style="color:#000000;clip-rule:nonzero;display:inline;overflow:visible;visibility:visible;opacity:1;isolation:auto;mix-blend-mode:normal;color-interpolation:sRGB;color-interpolation-filters:linearRGB;solid-color:#000000;solid-opacity:1;fill:#e6e6e6;fill-opacity:1;fill-rule:nonzero;stroke-width:1;stroke-linecap:butt;stroke-linejoin:miter;stroke-miterlimit:4;stroke-dasharray:none;stroke-dashoffset:0;stroke-opacity:1;color-rendering:auto;image-rendering:auto;shape-rendering:auto;text-rendering:auto;enable-background:accumulate" />
  <path
     style="color:#000000;clip-rule:nonzero;display:inline;overflow:visible;visibility:visible;opacity:1;isolation:auto;mix-blend-mode:normal;color-interpolation:sRGB;color-interpolation-filters:linearRGB;solid-color:#000000;solid-opacity:1;fill:#e6e6e6;fill-opacity:1;fill-rule:nonzero;stroke-width:1;stroke-linecap:butt;stroke-linejoin:miter;stroke-miterlimit:4;stroke-dasharray:none;stroke-dashoffset:0;stroke-opacity:1;color-rendering:auto;image-rendering:auto;shape-rendering:auto;text-rendering:auto;enable-background:accumulate"
     inkscape:connector-curvature="0"
     class="fil0"
     d="m 1393.6517,241.60651 17.8063,-17.80623 c 0.05,-0.0499 0.087,-0.0874 0.1372,-0.12478 l 9.0092,-9.00917 -9.0217,-9.02164 c -0.05,-0.0374 -0.087,-0.0749 -0.1372,-0.12478 l -17.8062,-17.80622 0,17.21975 -36.9227,0 0,19.45331 36.9227,0 0,17.21976 z"
     id="path4236" />
  <text
     sodipodi:linespacing="100%"
     id="text4168-3"
     y="740.84326"
     x="698.27917"
     style="color:#000000;font-style:normal;font-variant:normal;font-weight:normal;font-stretch:normal;font-size:35.99665833px;line-height:100%;font-family:Arial;-inkscape-font-specification:'Arial, Normal';text-indent:0;text-align:center;text-decoration:none;text-decoration-line:none;text-decoration-style:solid;text-decoration-color:#000000;letter-spacing:0px;word-spacing:0px;text-transform:none;direction:ltr;block-progression:tb;writing-mode:lr-tb;baseline-shift:baseline;text-anchor:middle;white-space:normal;clip-rule:nonzero;display:inline;overflow:visible;visibility:visible;opacity:1;isolation:auto;mix-blend-mode:normal;color-interpolation:sRGB;color-interpolation-filters:linearRGB;solid-color:#000000;solid-opacity:1;fill:#e6e6e6;fill-opacity:1;fill-rule:nonzero;stroke:none;stroke-width:1px;stroke-linecap:butt;stroke-linejoin:miter;stroke-miterlimit:4;stroke-dasharray:none;stroke-dashoffset:0;stroke-opacity:1;marker:none;color-rendering:auto;image-rendering:auto;shape-rendering:auto;text-rendering:auto;enable-background:accumulate"
     xml:space="preserve"><tspan
       y="740.84326"
       x="698.27917"
       sodipodi:role="line"
       id="tspan4146">Code</tspan></text>
  <g
     id="g4162"
     transform="matrix(1.6363191,0,0,1.6363191,618.78777,550.08836)"
     style="fill:#e6e6e6;fill-opacity:1">
    <path
       id="path4164"
       d="m 85.414,28.586 -22,-22 C 63.039,6.211 62.53,6 62,6 L 16,6 c -1.104,0 -2,0.896 -2,2 l 0,84 c 0,1.104 0.896,2 2,2 l 68,0 c 1.104,0 2,-0.896 2,-2 l 0,-62 c 0,-0.53 -0.211,-1.039 -0.586,-1.414 z M 64,12.828 79.171,28 64,28 64,12.828 Z M 18,90 l 0,-80 42,0 0,20 c 0,1.104 0.896,2 2,2 l 20,0 0,58 -64,0 z"
       inkscape:connector-curvature="0"
       style="fill:#e6e6e6;fill-opacity:1" />
    <path
       id="path4166"
       d="m 38,70 c -0.512,0 -1.024,-0.195 -1.414,-0.586 l -8,-8 c -0.781,-0.781 -0.781,-2.047 0,-2.828 l 8,-8 c 0.78,-0.781 2.048,-0.781 2.828,0 0.781,0.781 0.781,2.047 0,2.828 L 32.829,60 l 6.585,6.586 c 0.781,0.781 0.781,2.047 0,2.828 C 39.024,69.805 38.512,70 38,70 Z"
       inkscape:connector-curvature="0"
       style="fill:#e6e6e6;fill-opacity:1" />
    <path
       id="path4168"
       d="m 62,70 c -0.512,0 -1.023,-0.195 -1.414,-0.586 -0.781,-0.781 -0.781,-2.047 0,-2.828 L 67.172,60 60.586,53.414 c -0.781,-0.781 -0.781,-2.047 0,-2.828 0.781,-0.781 2.047,-0.781 2.828,0 l 8,8 c 0.781,0.781 0.781,2.047 0,2.828 l -8,8 C 63.023,69.805 62.512,70 62,70 Z"
       inkscape:connector-curvature="0"
       style="fill:#e6e6e6;fill-opacity:1" />
    <path
       id="path4170"
       d="m 46,74.001 c -0.21,0 -0.423,-0.033 -0.633,-0.104 -1.048,-0.35 -1.614,-1.482 -1.265,-2.53 l 8,-24 c 0.349,-1.047 1.478,-1.614 2.53,-1.265 1.048,0.35 1.614,1.482 1.265,2.53 l -8,24 c -0.279,0.839 -1.06,1.369 -1.897,1.369 z"
       inkscape:connector-curvature="0"
       style="fill:#e6e6e6;fill-opacity:1" />
  </g>
  <path
     sodipodi:type="star"
     style="color:#000000;clip-rule:nonzero;display:inline;overflow:visible;visibility:visible;opacity:1;isolation:auto;mix-blend-mode:normal;color-interpolation:sRGB;color-interpolation-filters:linearRGB;solid-color:#000000;solid-opacity:1;fill:none;fill-opacity:1;fill-rule:nonzero;stroke:#cccccc;stroke-width:2.40355611;stroke-linecap:butt;stroke-linejoin:miter;stroke-miterlimit:4;stroke-dasharray:none;stroke-dashoffset:0;stroke-opacity:1;marker:none;color-rendering:auto;image-rendering:auto;shape-rendering:auto;text-rendering:auto;enable-background:accumulate"
     id="path4183"
     sodipodi:sides="3"
     sodipodi:cx="227.90015"
     sodipodi:cy="293.88477"
     sodipodi:r1="304.18359"
     sodipodi:r2="149.04996"
     sodipodi:arg1="0.52359878"
     sodipodi:arg2="1.5707963"
     inkscape:flatsided="false"
     inkscape:rounded="-3.46945e-18"
     inkscape:randomized="0"
     d="M 491.33087,445.97656 227.90015,442.93472 -35.530574,445.97656 98.819095,219.35979 227.90015,-10.298828 356.98119,219.35978 Z"
     inkscape:transform-center-y="-126.60438"
     transform="matrix(1.6635602,0,0,1.6648417,67.640921,26.229395)" />
</svg>
