<?xml version="1.0" encoding="UTF-8" standalone="no"?>
<!-- Created with Inkscape (http://www.inkscape.org/) -->

<svg
   xmlns:dc="http://purl.org/dc/elements/1.1/"
   xmlns:cc="http://creativecommons.org/ns#"
   xmlns:rdf="http://www.w3.org/1999/02/22-rdf-syntax-ns#"
   xmlns:svg="http://www.w3.org/2000/svg"
   xmlns="http://www.w3.org/2000/svg"
   xmlns:sodipodi="http://sodipodi.sourceforge.net/DTD/sodipodi-0.dtd"
   xmlns:inkscape="http://www.inkscape.org/namespaces/inkscape"
   width="20.538551mm"
   height="20.538551mm"
   viewBox="0 0 72.774394 72.774394"
   id="svg4212"
   version="1.1"
   inkscape:version="0.91 r13725"
   sodipodi:docname="pep_logo.svg">
  <defs
     id="defs4214" />
  <sodipodi:namedview
     id="base"
     pagecolor="#ffffff"
     bordercolor="#666666"
     borderopacity="1.0"
     inkscape:pageopacity="0.0"
     inkscape:pageshadow="2"
     inkscape:zoom="1.979899"
     inkscape:cx="86.495086"
     inkscape:cy="67.854485"
     inkscape:document-units="px"
     inkscape:current-layer="layer1"
     showgrid="false"
     fit-margin-top="2"
     fit-margin-left="2"
     fit-margin-right="2"
     fit-margin-bottom="2" />
  <metadata
     id="metadata4217">
    <rdf:RDF>
      <cc:Work
         rdf:about="">
        <dc:format>image/svg+xml</dc:format>
        <dc:type
           rdf:resource="http://purl.org/dc/dcmitype/StillImage" />
        <dc:title></dc:title>
      </cc:Work>
    </rdf:RDF>
  </metadata>
  <g
     inkscape:label="Layer 1"
     inkscape:groupmode="layer"
     id="layer1"
     transform="translate(-412.18423,-298.83215)">
    <g
       id="g4230"
       transform="matrix(0.19441281,0,0,0.19441281,352.2438,327.89699)"
       style="fill:#ffffff">
      <g
         transform="matrix(5.0237743,0,0,5.0237743,344.76609,-113.04725)"
         style="fill:#ffffff;fill-rule:evenodd;stroke:none;stroke-width:1"
         id="g4180">
        <g
           style="fill:#ffffff"
           transform="translate(-986,-742)"
           id="g4182">
          <g
             transform="translate(986,742)"
             id="g4184"
             style="fill:#ffffff">
            <path
               inkscape:connector-curvature="0"
               d="M 30,50 C 18.972,50 10,41.028 10,30 c 0,-0.33 0.009,-0.664 0.025,-1 0.185,-0.001 0.359,-0.036 0.538,-0.057 0.151,-0.017 0.307,-0.018 0.454,-0.048 0.177,-0.037 0.34,-0.104 0.51,-0.159 0.142,-0.046 0.29,-0.076 0.425,-0.134 0.16,-0.068 0.304,-0.163 0.455,-0.247 0.131,-0.073 0.27,-0.132 0.393,-0.215 0.14,-0.095 0.26,-0.214 0.39,-0.322 0.116,-0.097 0.241,-0.182 0.348,-0.289 0.12,-0.121 0.218,-0.262 0.325,-0.394 0.094,-0.116 0.2,-0.222 0.284,-0.346 0.1,-0.147 0.172,-0.312 0.255,-0.469 0.068,-0.127 0.149,-0.246 0.205,-0.379 0.08,-0.188 0.128,-0.391 0.184,-0.59 0.033,-0.117 0.083,-0.226 0.107,-0.346 C 14.965,24.68 15,24.344 15,24 15,23.702 14.964,23.411 14.911,23.124 14.898,23.047 14.884,22.97 14.867,22.893 14.808,22.64 14.734,22.393 14.637,22.154 14.596,22.053 14.547,21.958 14.5,21.86 14.429,21.712 14.351,21.568 14.265,21.428 14.191,21.305 14.116,21.185 14.032,21.07 13.914,20.908 13.786,20.753 13.649,20.606 13.555,20.505 13.457,20.411 13.355,20.319 13.252,20.224 13.143,20.137 13.031,20.052 12.945,19.985 12.869,19.908 12.778,19.847 16.374,13.748 22.883,10 30,10 41.028,10 50,18.972 50,30 50,41.028 41.028,50 30,50 M 52,30 C 52,17.869 42.131,8 30,8 22.072,8 14.841,12.234 10.918,19.093 10.62,19.037 10.315,19 10,19 7.243,19 5,21.243 5,24 5,26.073 6.269,27.854 8.07,28.611 8.041,29.076 8,29.544 8,30 8,42.131 17.869,52 30,52 42.131,52 52,42.131 52,30"
               id="path4188"
               style="fill:#ffffff" />
            <path
               inkscape:connector-curvature="0"
               d="m 43.2881,54.6436 c -4.071,2.198 -8.646,3.356 -13.288,3.356 -15.44,0 -28,-12.56 -28,-28 0,-15.439 12.56,-28 28,-28 5.296,0 10.454,1.492 14.922,4.314 l 0.26,0.247 c -0.115,0.462 -0.182,0.943 -0.182,1.439 0,3.309 2.691,6 6,6 0.263,0 0.521,-0.022 0.775,-0.055 0.069,-0.009 0.136,-0.02 0.204,-0.032 0.219,-0.036 0.434,-0.083 0.645,-0.142 0.029,-0.008 0.06,-0.011 0.089,-0.02 l 0.255,0.244 c 3.292,4.714 5.032,10.247 5.032,16.005 0,7.001 -2.574,13.645 -7.269,18.811 -0.235,-0.154 -0.484,-0.28 -0.74,-0.392 -0.053,-0.022 -0.107,-0.039 -0.161,-0.06 -0.225,-0.089 -0.456,-0.161 -0.693,-0.216 -0.077,-0.018 -0.152,-0.036 -0.23,-0.051 -0.297,-0.054 -0.599,-0.092 -0.907,-0.092 -2.757,0 -5,2.244 -5,5 0,0.303 0.034,0.603 0.091,0.901 0.03,0.166 0.082,0.323 0.128,0.483 0.026,0.086 0.039,0.175 0.069,0.26 m 16.712,-24.644 c 0,-6.187 -1.877,-12.131 -5.424,-17.193 1.468,-1.095 2.424,-2.839 2.424,-4.807 0,-3.308 -2.691,-6 -6,-6 -2.068,0 -3.894,1.052 -4.974,2.648 -4.797,-3.04 -10.337,-4.648 -16.026,-4.648 -16.542,0 -30,13.458 -30,30 0,16.542 13.458,30 30,30 5.005,0 9.929,-1.27 14.311,-3.654 0.915,1.009 2.223,1.654 3.689,1.654 2.757,0 5,-2.243 5,-5 0,-1.031 -0.315,-1.991 -0.852,-2.788 5.066,-5.542 7.852,-12.682 7.852,-20.212"
               id="path4190"
               style="fill:#ffffff" />
          </g>
        </g>
      </g>
      <g
         transform="matrix(-0.1675263,0.1675263,-0.1675263,-0.1675263,645.9403,79.231759)"
         id="g4218"
         style="fill:#ffffff">
        <path
           inkscape:connector-curvature="0"
           style="fill:#ffffff"
           d="m 313.03206,217.71382 c -87.631,0 -158.548,70.916 -158.548,158.548 l 0,356.977 c 0,53 26.035,99.811 65.941,128.608 1.303,0.994 2.575,1.979 3.879,2.909 0.372,0.248 0.839,0.479 1.212,0.728 20.853,13.84 45.083,22.908 71.273,25.576 5.338,0.559 10.72,0.848 16.243,0.848 87.57,0 158.67,-71.038 158.67,-158.669 l 0,-356.977 c -0.06,-87.632 -71.1,-158.548 -158.67,-158.548 z m 0,26.545 c 72.799,0 132.003,59.203 132.003,132.003 l 0,178.55 -264.005,0 0,-178.55 c 0,-72.8 59.204,-132.003 132.002,-132.003 z m 101.7,455.523 c 6.144,-0.806 11.627,4.397 11.999,10.79 0.06,0.807 3.806,92.549 -80.97,128.609 -1.428,0.681 -2.996,0.968 -4.486,0.968 -4.406,0 -8.745,-2.625 -10.545,-6.908 -2.483,-5.896 0.227,-12.549 6.061,-15.031 70.254,-29.852 67.093,-105.619 67.031,-106.428 -0.31,-6.328 4.579,-11.688 10.91,-12 z"
           id="path4220" />
      </g>
    </g>
  </g>
</svg>
