<?xml version="1.0" encoding="UTF-8" standalone="no"?>
<!-- Created with Inkscape (http://www.inkscape.org/) -->

<svg
   xmlns:dc="http://purl.org/dc/elements/1.1/"
   xmlns:cc="http://creativecommons.org/ns#"
   xmlns:rdf="http://www.w3.org/1999/02/22-rdf-syntax-ns#"
   xmlns:svg="http://www.w3.org/2000/svg"
   xmlns="http://www.w3.org/2000/svg"
   xmlns:sodipodi="http://sodipodi.sourceforge.net/DTD/sodipodi-0.dtd"
   xmlns:inkscape="http://www.inkscape.org/namespaces/inkscape"
   width="48mm"
   height="30mm"
   viewBox="0 0 170.07874 106.29922"
   id="svg5220"
   version="1.1"
   inkscape:version="0.91 r13725"
   sodipodi:docname="parallel_dependency.svg">
  <defs
     id="defs5222" />
  <sodipodi:namedview
     id="base"
     pagecolor="#15261d"
     bordercolor="#666666"
     borderopacity="1.0"
     inkscape:pageopacity="0"
     inkscape:pageshadow="2"
     inkscape:zoom="2.8"
     inkscape:cx="99.201382"
     inkscape:cy="67.181701"
     inkscape:document-units="px"
     inkscape:current-layer="layer1"
     showgrid="false"
     fit-margin-top="0"
     fit-margin-left="0"
     fit-margin-right="0"
     fit-margin-bottom="0"
     inkscape:window-width="959"
     inkscape:window-height="1148"
     inkscape:window-x="0"
     inkscape:window-y="0"
     inkscape:window-maximized="0" />
  <metadata
     id="metadata5225">
    <rdf:RDF>
      <cc:Work
         rdf:about="">
        <dc:format>image/svg+xml</dc:format>
        <dc:type
           rdf:resource="http://purl.org/dc/dcmitype/StillImage" />
        <dc:title></dc:title>
      </cc:Work>
    </rdf:RDF>
  </metadata>
  <g
     inkscape:label="Layer 1"
     inkscape:groupmode="layer"
     id="layer1"
     transform="translate(-21.789597,-868.63616)">
    <g
       id="g4314"
       transform="translate(13.749842,0)">
      <g
         transform="translate(5.9361137,0.71506304)"
         id="g4206">
        <g
           id="g4148"
           transform="matrix(1.586454,0,0,1.586454,611.05696,115.90381)"
           style="fill:none;stroke:#ffffff">
          <circle
             r="9.8527794"
             cy="507.52615"
             cx="-363.56033"
             id="path4142"
             style="color:#000000;clip-rule:nonzero;display:inline;overflow:visible;visibility:visible;opacity:1;isolation:auto;mix-blend-mode:normal;color-interpolation:sRGB;color-interpolation-filters:linearRGB;solid-color:#000000;solid-opacity:1;fill:none;fill-opacity:1;fill-rule:nonzero;stroke:#ffffff;stroke-width:1;stroke-linecap:butt;stroke-linejoin:miter;stroke-miterlimit:4;stroke-dasharray:none;stroke-dashoffset:0;stroke-opacity:1;color-rendering:auto;image-rendering:auto;shape-rendering:auto;text-rendering:auto;enable-background:accumulate" />
        </g>
        <g
           id="g4176"
           transform="matrix(0.29518092,-0.07909349,0.07909349,0.29518092,15.292574,910.56441)"
           style="fill:#ffffff">
          <g
             id="g4158"
             style="fill:#ffffff">
            <path
               id="path4160"
               d="m 62,16 0,-4.8 C 62,9 59.3,8 56.8,8 L 42.5,8 C 39.4,8 38,9.6 38,11.3 l 0,4.7 c -0.6,0.7 -1,1.7 -1,2.9 l 0,1.8 c 0,1.5 0.8,2.6 2,3.1 l 0,57.5 c 0,6.4 4.9,11.5 11,11.5 6.1,0 11,-5.2 11,-11.5 l 0,-57.5 c 1.3,-0.5 2,-1.6 2,-3.1 l 0,-1.8 C 63,17.7 62.6,16.7 62,16 Z M 42,12 c 0.1,0 0.3,0 0.5,0 l 14.3,0 c 0.5,0 0.9,0.1 1.2,0.1 l 0,2.9 -16,0 0,-3 z m 17,8 c -1,0 -2,0.9 -2,2 l 0,59.3 c 0,4.1 -3.2,7.5 -7,7.5 -3.8,0 -7,-3.5 -7,-7.5 L 43,22 c 0,-1.1 -0.9,-2 -2,-2 l 0,-1 18,0 0,1 z"
               inkscape:connector-curvature="0"
               style="fill:#ffffff" />
          </g>
          <g
             id="g4162"
             style="fill:#ffffff">
            <path
               id="path4164"
               d="m 53.8,74.1 c -0.6,0 -1,-0.4 -1,-1 l 0,-32.8 c 0,-0.6 0.4,-1 1,-1 0.6,0 1,0.4 1,1 l 0,32.7 c 0,0.6 -0.4,1.1 -1,1.1 z"
               inkscape:connector-curvature="0"
               style="fill:#ffffff" />
          </g>
          <g
             id="g4166"
             style="fill:#ffffff">
            <circle
               id="circle4168"
               r="2.2"
               cy="78.800003"
               cx="53.799999"
               style="fill:#ffffff" />
          </g>
        </g>
      </g>
      <g
         style="stroke:#ffffff"
         transform="translate(34.45193,406.61651)"
         id="g6534">
        <path
           style="fill:none;fill-rule:evenodd;stroke:#ffffff;stroke-width:2.68597603;stroke-linecap:butt;stroke-linejoin:miter;stroke-miterlimit:4.4000001;stroke-dasharray:none;stroke-opacity:1"
           d="m 127.9092,515.28402 -107.42456,0"
           id="path4453"
           inkscape:connector-curvature="0"
           sodipodi:nodetypes="cc" />
        <path
           transform="matrix(1.1356469,0,0,1.1364019,-291.35802,563.7071)"
           d="m 299.76956,-42.711864 -9.1704,5.294534 -9.1704,5.294533 0,-10.589068 0,-10.589067 9.1704,5.294533 z"
           inkscape:randomized="0"
           inkscape:rounded="-3.469447e-18"
           inkscape:flatsided="false"
           sodipodi:arg2="1.0471976"
           sodipodi:arg1="0"
           sodipodi:r2="6.1136017"
           sodipodi:r1="12.227201"
           sodipodi:cy="-42.711864"
           sodipodi:cx="287.54236"
           sodipodi:sides="3"
           id="path4455"
           style="color:#000000;display:inline;overflow:visible;visibility:visible;fill:#16502d;fill-opacity:1;fill-rule:nonzero;stroke:#ffffff;stroke-width:2;marker:none;enable-background:accumulate"
           sodipodi:type="star" />
        <path
           sodipodi:type="star"
           style="color:#000000;display:inline;overflow:visible;visibility:visible;fill:#16502d;fill-opacity:1;fill-rule:nonzero;stroke:#ffffff;stroke-width:2;marker:none;enable-background:accumulate"
           id="path4457"
           sodipodi:sides="3"
           sodipodi:cx="287.54236"
           sodipodi:cy="-42.711864"
           sodipodi:r1="12.227201"
           sodipodi:r2="6.1136017"
           sodipodi:arg1="0"
           sodipodi:arg2="1.0471976"
           inkscape:flatsided="false"
           inkscape:rounded="-3.469447e-18"
           inkscape:randomized="0"
           d="m 299.76956,-42.711864 -9.1704,5.294534 -9.1704,5.294533 0,-10.589068 0,-10.589067 9.1704,5.294533 z"
           transform="matrix(1.1356469,0,0,1.1364019,-266.5801,557.7071)" />
        <path
           transform="matrix(1.1356469,0,0,1.1364019,-266.55103,569.7071)"
           d="m 299.76956,-42.711864 -9.1704,5.294534 -9.1704,5.294533 0,-10.589068 0,-10.589067 9.1704,5.294533 z"
           inkscape:randomized="0"
           inkscape:rounded="-3.469447e-18"
           inkscape:flatsided="false"
           sodipodi:arg2="1.0471976"
           sodipodi:arg1="0"
           sodipodi:r2="6.1136017"
           sodipodi:r1="12.227201"
           sodipodi:cy="-42.711864"
           sodipodi:cx="287.54236"
           sodipodi:sides="3"
           id="path4459"
           style="color:#000000;display:inline;overflow:visible;visibility:visible;fill:#16502d;fill-opacity:1;fill-rule:nonzero;stroke:#ffffff;stroke-width:2;marker:none;enable-background:accumulate"
           sodipodi:type="star" />
        <path
           sodipodi:type="star"
           style="color:#000000;display:inline;overflow:visible;visibility:visible;fill:#16502d;fill-opacity:1;fill-rule:nonzero;stroke:#ffffff;stroke-width:2;marker:none;enable-background:accumulate"
           id="path4461"
           sodipodi:sides="3"
           sodipodi:cx="287.54236"
           sodipodi:cy="-42.711864"
           sodipodi:r1="12.227201"
           sodipodi:r2="6.1136017"
           sodipodi:arg1="0"
           sodipodi:arg2="1.0471976"
           inkscape:flatsided="false"
           inkscape:rounded="-3.469447e-18"
           inkscape:randomized="0"
           d="m 299.76956,-42.711864 -9.1704,5.294534 -9.1704,5.294533 0,-10.589068 0,-10.589067 9.1704,5.294533 z"
           transform="matrix(1.1356469,0,0,1.1364019,-243.02425,563.7071)" />
        <path
           transform="matrix(1.1356469,0,0,1.1364019,-218.24633,563.7071)"
           d="m 299.76956,-42.711864 -9.1704,5.294534 -9.1704,5.294533 0,-10.589068 0,-10.589067 9.1704,5.294533 z"
           inkscape:randomized="0"
           inkscape:rounded="-3.469447e-18"
           inkscape:flatsided="false"
           sodipodi:arg2="1.0471976"
           sodipodi:arg1="0"
           sodipodi:r2="6.1136017"
           sodipodi:r1="12.227201"
           sodipodi:cy="-42.711864"
           sodipodi:cx="287.54236"
           sodipodi:sides="3"
           id="path4463"
           style="color:#000000;display:inline;overflow:visible;visibility:visible;fill:#16502d;fill-opacity:1;fill-rule:nonzero;stroke:#ffffff;stroke-width:2;marker:none;enable-background:accumulate"
           sodipodi:type="star" />
      </g>
    </g>
  </g>
</svg>
