<?xml version="1.0" encoding="UTF-8" standalone="no"?>
<!-- Created with Inkscape (http://www.inkscape.org/) -->

<svg
   width="280mm"
   height="180mm"
   viewBox="0 0 280 180"
   version="1.1"
   id="svg5"
   inkscape:version="1.1.2 (1:1.1+202202050950+0a00cf5339)"
   sodipodi:docname="atac-distribution.svg"
   xmlns:inkscape="http://www.inkscape.org/namespaces/inkscape"
   xmlns:sodipodi="http://sodipodi.sourceforge.net/DTD/sodipodi-0.dtd"
   xmlns="http://www.w3.org/2000/svg"
   xmlns:svg="http://www.w3.org/2000/svg">
  <sodipodi:namedview
     id="namedview7"
     pagecolor="#191919"
     bordercolor="#666666"
     borderopacity="1.0"
     inkscape:pageshadow="2"
     inkscape:pageopacity="0"
     inkscape:pagecheckerboard="0"
     inkscape:document-units="mm"
     showgrid="false"
     inkscape:zoom="1.2674828"
     inkscape:cx="422.49094"
     inkscape:cy="300.5958"
     inkscape:window-width="2488"
     inkscape:window-height="1343"
     inkscape:window-x="1272"
     inkscape:window-y="231"
     inkscape:window-maximized="1"
     inkscape:current-layer="layer1"
     inkscape:snap-global="false" />
  <defs
     id="defs2" />
  <g
     inkscape:label="Layer 1"
     inkscape:groupmode="layer"
     id="layer1">
    <g
       id="g1768"
       transform="matrix(1.7949691,0,0,1.7949691,-27.135218,-11.341666)" />
    <path
       style="fill:#ffffff;stroke:#ffffff;stroke-width:1.14275;-inkscape-stroke:none;paint-order:fill markers stroke;stop-color:#000000"
       id="path857"
       d="m 41.874758,35.833378 c 0.87007,2.690546 0.406026,5.556774 0.06669,8.31051 -0.300572,2.335518 -0.567927,4.682633 -0.671157,7.042059 -0.05143,1.175499 -0.03353,1.77529 -0.02613,2.940812 0.07411,2.622594 0.166176,5.239974 0.140852,7.864614 -0.07307,3.694928 -0.233368,7.388888 -0.187894,11.085375 0.09135,3.330953 0.0052,6.663785 -0.03807,9.994851 -0.03763,3.289839 -0.05352,6.579957 -0.04076,9.870037 0.04526,3.800242 -0.04784,7.598974 -0.187433,11.395364 -0.148907,4.18783 -0.396333,8.36913 -0.677885,12.5477 -0.142625,2.15995 -0.269856,4.32118 -0.402034,6.482 -0.10826,2.10304 -0.146128,4.21018 -0.165088,6.31647 0.02674,0.42183 -0.0598,0.58617 -0.08528,0.95722 -0.0089,0.0808 -0.0039,0.71873 0.02921,0.72538 0.759143,0.15227 0.65111,0.24262 0.841089,-0.1794 0.09905,-0.31771 0.08468,-0.65221 0.02653,-0.97732 -0.02716,-0.14675 -0.02961,-0.27889 -0.0541,-0.43167 -0.102888,-0.10723 -0.205776,-0.21443 -0.308662,-0.32165 -0.485799,-0.24103 -0.784847,0.54206 -0.299047,0.78309 v 0 c -0.03787,-0.0749 -0.07572,-0.14992 -0.113593,-0.22488 0.02563,-0.15649 -0.0077,0.30914 0.04183,0.37865 0.03117,0.14162 0.03798,0.28851 0.02869,0.43403 -0.07518,0.28756 -0.03457,0.0621 0.5681,0.33977 0.02983,0.0138 -0.01812,-0.0711 -0.01965,-0.10777 -0.0026,-0.0574 -8.5e-4,-0.11516 -1.2e-5,-0.17266 8.51e-4,-0.0623 0.003,-0.12461 0.0046,-0.18693 0.01501,-0.33859 0.132481,-0.66754 0.06789,-1.01756 -0.02627,-2.0862 0.01289,-4.17412 0.138607,-6.25589 0.147463,-2.16018 0.257429,-4.32223 0.363502,-6.48555 0.256927,-4.18786 0.518479,-8.37556 0.665141,-12.5709 0.15039,-3.80789 0.248408,-7.618025 0.218029,-11.430366 -0.0082,-3.285213 -0.01587,-6.570647 0.02546,-9.85564 0.0461,-3.339959 0.145385,-6.68212 0.05905,-10.022005 -0.08379,-3.6879 0.07091,-7.373829 0.181755,-11.059193 0.03774,-2.630638 -0.03765,-5.254205 -0.134702,-7.882149 -0.0098,-1.05875 -0.02886,-1.818438 0.01156,-2.881993 0.08901,-2.342249 0.369022,-4.668815 0.661666,-6.986945 0.362819,-2.888554 0.82505,-5.871606 -0.04795,-8.705193 -0.178461,-0.548608 -0.859123,-0.260933 -0.680662,0.287675 z" />
    <path
       style="fill:#ffffff;stroke:#ffffff;stroke-width:1.0875;-inkscape-stroke:none;paint-order:fill markers stroke;stop-color:#000000"
       id="path859"
       d="m 40.960794,131.66251 c 1.644798,-0.28254 3.278034,-0.60534 4.938873,-0.77885 1.763316,-0.11328 3.522427,-0.25921 5.278445,-0.45512 1.471973,-0.22653 2.95335,-0.13445 4.432543,-0.0684 2.900397,0.0918 5.802044,0.15131 8.703837,0.1744 2.976257,0.0581 5.952035,0.13587 8.928314,0.19665 2.56215,0.0771 5.126979,0.0532 7.687701,0.17426 1.746786,0.10364 3.497417,0.053 5.246265,0.0896 2.03371,0.0947 4.067383,0.12948 6.102945,0.11255 2.6312,-0.007 5.260608,-0.0719 7.886063,-0.2463 2.31856,-0.19362 4.63962,-0.35396 6.95914,-0.53501 0.68755,-0.0756 1.38781,-0.094 2.06417,-0.25362 0.63463,-0.1498 1.25872,-0.35441 1.89303,-0.50956 1.31822,-0.31853 2.67267,-0.37792 4.01406,-0.5258 1.28072,-0.24554 2.57099,-0.41268 3.872,-0.49776 0.91851,-0.0343 1.82919,-0.15483 2.74597,-0.21799 1.05581,-0.0959 2.12022,-0.0237 3.17566,-0.11158 1.01983,-0.25378 2.06117,-0.34863 3.10921,-0.40755 1.47447,-0.0816 2.94686,0.0164 4.41835,0.0964 2.79593,0.11637 5.5875,0.2926 8.37146,0.5763 3.986,0.48564 7.98596,0.83582 11.98449,1.19805 3.49411,0.35308 6.99511,0.60717 10.50234,0.77885 2.48127,0.12325 4.96574,0.0634 7.44852,0.0695 2.84601,0.007 2.86545,0.0254 5.80429,0.10157 5.17417,0.1144 10.31957,0.66085 15.45961,1.22075 4.20903,0.38948 8.43085,0.62005 12.64527,0.9469 5.83269,0.45644 11.66832,0.87414 17.50342,1.29821 2.02266,0.11773 4.04496,0.31405 6.07275,0.32239 1.03891,0.004 1.55501,-0.0291 2.60227,-0.0721 2.50718,-0.13908 5.01442,-0.27024 7.52483,-0.33336 0.85323,-0.0408 1.70416,0.0443 2.55677,0.0431 0.21704,0.003 0.43294,-0.0182 0.64881,-0.0365 0.0506,-0.004 0.17063,0.0392 0.15196,-0.008 -0.0891,-0.22495 -0.20138,-0.43999 -0.30206,-0.65999 0.02,-0.0109 -0.25601,0.17262 -0.24011,0.16706 0.0802,-0.0281 0.29878,-0.0309 0.23843,-0.0909 -0.0997,-0.0991 -0.2757,-0.0554 -0.41355,-0.0831 -0.51691,-0.10788 -0.66948,0.62314 -0.15257,0.73102 v 0 c 0.29822,0.0654 0.6759,0.18968 0.92088,-0.0508 -0.0264,-0.25892 -0.027,-0.52183 -0.0794,-0.77677 -0.001,-0.005 -0.76908,0.0848 -0.77741,0.0571 -0.85837,0.0109 -1.71664,-0.0787 -2.57512,-0.007 -2.51048,0.10081 -5.02043,0.21267 -7.52893,0.35509 -2.87179,0.10954 -5.73814,0.01 -8.60538,-0.18695 -5.83711,-0.35798 -11.66879,-0.80399 -17.4963,-1.29304 -4.20784,-0.33808 -8.42061,-0.61283 -12.626,-0.97887 -5.16002,-0.5162 -10.32268,-1.03704 -15.51116,-1.16181 -2.69504,-0.0837 -3.19579,-0.11311 -5.82133,-0.14358 -2.4715,-0.0287 -4.9448,0.008 -7.41457,-0.11358 -3.49735,-0.17611 -6.9932,-0.38545 -10.48037,-0.71112 -3.9966,-0.36367 -7.9863,-0.79281 -11.97122,-1.26751 -2.79363,-0.27929 -5.59556,-0.43799 -8.39711,-0.61519 -1.49828,-0.0986 -2.99762,-0.16383 -4.49942,-0.0869 -1.05471,0.0517 -2.11391,0.11596 -3.1416,0.37204 -1.04505,0.10955 -2.10297,0.0502 -3.14985,0.13958 -0.92072,0.0493 -1.83552,0.13994 -2.75456,0.20772 -1.30861,0.10255 -2.61123,0.25957 -3.90391,0.49003 -1.36915,0.16242 -2.74782,0.26287 -4.09753,0.56293 -1.27651,0.29846 -2.52174,0.72383 -3.8466,0.76196 -2.31515,0.19736 -4.63481,0.33408 -6.9493,0.54015 -2.609315,0.18232 -5.223987,0.25765 -7.83984,0.24223 -2.029025,-0.009 -4.057884,-0.0196 -6.085396,-0.11035 -1.744671,-0.0437 -3.490324,-0.0324 -5.234111,-0.10701 -2.566426,-0.081 -5.134963,-0.0642 -7.701691,-0.13686 -2.979407,-0.0642 -5.958384,-0.14589 -8.937892,-0.20095 -2.891982,-0.0168 -5.783996,-0.0731 -8.673391,-0.20016 -1.51843,-0.0823 -3.037833,-0.18989 -4.548231,0.0638 -1.753391,0.19907 -3.510917,0.34288 -5.271792,0.45812 -1.669542,0.17183 -3.308884,0.49955 -4.965854,0.75879 -0.518046,0.0713 -0.417188,0.80396 0.100866,0.73264 z" />
    <path
       style="fill:#ffffff;stroke:#ffffff;stroke-width:1.0875;-inkscape-stroke:none;paint-order:fill markers stroke;stop-color:#000000"
       id="path1225"
       d="m 48.291144,34.869889 c 0.607797,-0.395559 1.216152,-0.79222 1.844579,-1.154701 0.327568,-0.188943 0.640907,-0.379711 1.014374,-0.464989 0.136095,-0.03108 0.278345,-0.02178 0.417518,-0.03268 0.129794,0.04129 0.269422,0.05938 0.389387,0.123881 0.844409,0.454022 1.299233,1.750502 1.67047,2.566201 0.724343,1.48278 1.196848,3.063451 1.724249,4.621851 0.519774,1.497679 1.168382,2.945687 1.791251,4.402191 0.549934,1.507914 1.406315,2.860884 2.243911,4.219456 1.186289,1.807453 2.237644,3.689991 3.180904,5.63376 1.102915,2.351198 2.226482,4.692412 3.378651,7.019881 1.398998,2.843447 3.268752,5.410407 5.107057,7.978433 1.406228,1.864678 2.855364,3.721112 4.538683,5.348534 0.861743,0.833124 1.445954,1.28326 2.360809,2.034213 2.151154,1.599491 4.246053,3.261159 6.210506,5.086161 1.834419,1.743156 3.551728,3.601199 5.27288,5.454244 1.752636,1.823604 3.617732,3.570164 5.74442,4.955026 0.473411,0.308275 0.967447,0.583655 1.451172,0.875484 3.343081,1.866905 6.998885,3.059011 10.597575,4.321872 3.69384,1.340127 7.32439,2.844583 10.98724,4.265233 2.33622,0.90409 4.7275,1.66606 7.17834,2.19136 1.32028,0.28298 2.07265,0.38796 3.39685,0.60228 2.97147,0.46702 5.9668,0.70568 8.9691,0.84405 3.15308,0.12642 6.30978,0.0861 9.46465,0.0843 2.88289,-0.0296 5.76252,0.0699 8.6398,0.23784 2.48921,0.11755 4.979,0.37996 7.47362,0.35489 0.4907,-0.005 0.98091,-0.033 1.47136,-0.0495 4.28261,-0.35261 8.4826,-1.34789 12.62809,-2.43993 2.8429,-0.74791 5.56277,-1.86492 8.1392,-3.2742 1.48131,-0.810255 2.2001,-1.288488 3.63458,-2.184741 2.46131,-1.603248 4.85969,-3.308251 7.13382,-5.169192 1.44388,-1.181537 1.73671,-1.480901 3.10847,-2.729804 3.26386,-3.040126 5.99676,-6.56394 8.59672,-10.170151 2.15377,-2.892682 3.68021,-6.183427 5.65131,-9.190784 0.43318,-0.660919 0.90842,-1.293295 1.36263,-1.939941 2.02924,-2.610162 4.33063,-5.049112 7.04618,-6.957876 0.54262,-0.381403 1.09791,-0.751046 1.68921,-1.051483 0.48094,-0.244366 1.00843,-0.383586 1.51264,-0.575378 0.4569,-0.03005 0.91711,-0.152706 1.37071,-0.09015 2.08805,0.287949 3.42971,2.285445 4.24364,4.026786 0.27757,0.593847 0.49144,1.215439 0.73715,1.823157 1.76408,4.823754 2.46065,9.923323 3.26423,14.968602 0.92432,6.335797 2.19336,12.615744 3.69076,18.840045 0.35043,1.45667 0.73482,2.90496 1.10222,4.35743 1.1985,3.77126 1.26405,4.40655 2.88815,7.91416 0.15974,0.34501 2.16137,4.14657 2.56119,4.90742 2.8e-4,5.8e-4 0.001,1.5e-4 8.6e-4,-2.8e-4 v 0 c -0.40029,-0.76169 -2.40091,-4.56096 -2.56129,-4.9073 -1.6241,-3.5075 -1.68967,-4.14288 -2.88814,-7.91405 -0.3674,-1.45247 -0.75176,-2.90075 -1.10219,-4.35741 -1.49736,-6.224294 -2.76643,-12.504221 -3.69065,-18.840011 -0.80355,-5.045357 -1.50017,-10.144984 -3.26422,-14.968818 -0.24572,-0.607757 -0.45959,-1.229388 -0.73717,-1.82327 -0.81411,-1.741719 -2.15606,-3.739387 -4.24454,-4.027302 -0.4537,-0.06254 -0.91399,0.06015 -1.37099,0.09023 -0.50426,0.191827 -1.03181,0.331084 -1.5128,0.575485 -0.59131,0.300463 -1.14663,0.670138 -1.68926,1.051563 -2.7156,1.908845 -5.01707,4.347836 -7.04637,6.958072 -0.45422,0.646659 -0.92948,1.279048 -1.36267,1.939981 -1.9711,3.007334 -3.49754,6.298052 -5.65128,9.190727 -2.5999,3.606162 -5.33278,7.129926 -8.5966,10.169999 -1.37171,1.248868 -1.66458,1.548263 -3.10841,2.729769 -2.2741,1.860929 -4.67245,3.565903 -7.13374,5.169134 -1.43444,0.896227 -2.15326,1.374467 -3.63451,2.184691 -2.57637,1.40926 -5.29618,2.52625 -8.139,3.27415 -4.14543,1.09203 -8.34536,2.08728 -12.62791,2.43984 -0.49044,0.0165 -0.98063,0.0445 -1.47131,0.0495 -2.49461,0.0251 -4.98438,-0.23732 -7.47357,-0.35488 -2.87731,-0.16799 -5.75696,-0.26744 -8.63987,-0.23785 -3.15484,0.002 -6.31153,0.0421 -9.46461,-0.0843 -3.00225,-0.13837 -5.99754,-0.37704 -8.96899,-0.84402 -1.32422,-0.21432 -2.07645,-0.31928 -3.39677,-0.60226 -2.45081,-0.52529 -4.84204,-1.28723 -7.17822,-2.19131 -3.66286,-1.42066 -7.29342,-2.925097 -10.98727,-4.265241 -3.59863,-1.262834 -7.254375,-2.454917 -10.597395,-4.321805 -0.483703,-0.29182 -0.977718,-0.56719 -1.451112,-0.875456 C 93.054775,91.27588 91.189726,89.52937 89.437155,87.705797 87.715993,85.852729 85.998655,83.994681 84.164224,82.251504 82.199751,80.426497 80.104843,78.7648 77.95366,77.165314 77.038747,76.414327 76.454727,75.964361 75.592927,75.131185 73.909636,73.503801 72.460506,71.647425 71.054329,69.782764 69.216067,67.21477 67.346331,64.647858 65.947367,61.804451 64.795199,59.476985 63.67166,57.13576 62.568745,54.784565 61.625471,52.840767 60.574098,50.9582 59.387801,49.150711 58.550237,47.792181 57.693904,46.43924 57.143977,44.93138 56.521108,43.474905 55.872518,42.02692 55.352748,40.529266 54.825327,38.970838 54.352822,37.39013 53.628467,35.907318 c -0.371361,-0.81597 -0.826296,-2.11274 -1.671087,-2.566781 -0.120092,-0.06454 -0.259861,-0.08262 -0.389791,-0.123926 -0.139263,0.01091 -0.281604,0.0017 -0.417786,0.03274 -0.373539,0.08531 -0.686924,0.276109 -1.014554,0.465093 -0.628433,0.362496 -1.2368,0.759159 -1.844621,1.154704 -5.75e-4,2.87e-4 -4.8e-5,0.0012 5.76e-4,8.63e-4 z" />
    <g
       id="g1568"
       transform="matrix(0.62067609,0,0,0.62067609,81.762359,58.080752)">
      <path
         style="fill:#ffffff;stroke:#ffffff;stroke-width:1;-inkscape-stroke:none;paint-order:fill markers stroke;stop-color:#000000"
         id="path1443"
         d="m 42.860465,147.11044 c 1.155361,-4.54476 1.6686,-9.21852 2.54296,-13.81933 0.171456,-0.90219 0.375439,-1.7979 0.563158,-2.69684 0.01437,-0.0472 0.467066,-2.48109 1.24423,-2.58531 0.341431,-0.0458 0.657442,0.27708 0.882396,0.53798 0.424913,0.49281 0.723389,1.0855 1.017764,1.66581 0.796613,1.5704 1.688452,4.03179 2.299748,5.62101 0.99009,2.70179 2.041417,5.38053 3.055234,8.07333 0.187058,0.49685 0.703675,1.6136 0.692589,2.26348 -1.3e-5,8e-4 0.0011,8e-4 0.0011,2e-5 v 0 c 0.01085,-0.65043 -0.505404,-1.76609 -0.6928,-2.26379 -1.01391,-2.69277 -2.065243,-5.37151 -3.055314,-8.0733 -0.611081,-1.58873 -1.503306,-4.05119 -2.299718,-5.62119 -0.294436,-0.58044 -0.592841,-1.17337 -1.018008,-1.66616 -0.225235,-0.26105 -0.541833,-0.58372 -0.88355,-0.53781 -0.777203,0.1044 -1.229828,2.53817 -1.244319,2.58577 -0.187704,0.89896 -0.391666,1.79467 -0.563116,2.69687 -0.874307,4.60079 -1.387599,9.27452 -2.543148,13.8192 -1.83e-4,5.3e-4 7.93e-4,8e-4 7.94e-4,2.6e-4 z" />
      <path
         style="fill:#ffffff;stroke:#ffffff;stroke-width:1;-inkscape-stroke:none;paint-order:fill markers stroke;stop-color:#000000"
         id="path1445"
         d="m 45.684439,139.29349 c 1.27494,-0.1556 2.521779,-0.48487 3.790379,-0.67606 0.421471,-0.0635 0.847386,-0.0929 1.271077,-0.13931 5.29e-4,-7e-5 5.29e-4,-10e-4 -9.8e-5,-7.9e-4 v 0 c -0.423715,0.0464 -0.849649,0.0758 -1.271141,0.13933 -1.268587,0.19119 -2.51542,0.52043 -3.790354,0.67599 -7.94e-4,1e-4 -5.29e-4,0.001 1.37e-4,0.001 z" />
      <path
         style="fill:#ffffff;stroke:#ffffff;stroke-width:1;-inkscape-stroke:none;paint-order:fill markers stroke;stop-color:#000000"
         id="path1447"
         d="m 62.071591,135.80749 c -2.122149,0.0156 -3.438891,1.07324 -4.070726,3.13439 -0.151577,0.49447 -0.172109,1.01994 -0.258165,1.52991 0.08696,0.93233 -0.04205,1.6474 0.724742,2.34294 0.945578,0.85771 2.573652,0.7464 3.712442,0.53243 0.350309,-0.0658 0.687899,-0.18706 1.031849,-0.28058 5.29e-4,-1.7e-4 2.65e-4,-10e-4 -2.41e-4,-8e-4 v 0 c -0.343905,0.0935 -0.681453,0.21475 -1.031716,0.28057 -1.138359,0.21393 -2.76625,0.32531 -3.711556,-0.532 -0.766678,-0.6953 -0.637681,-1.41021 -0.724654,-2.34232 0.08603,-0.5099 0.10655,-1.0353 0.258098,-1.5297 0.631669,-2.06074 1.948095,-3.11824 4.069845,-3.13378 7.93e-4,6e-5 7.93e-4,-8e-4 8.2e-5,-0.001 z" />
      <path
         style="fill:#ffffff;stroke:#ffffff;stroke-width:1;-inkscape-stroke:none;paint-order:fill markers stroke;stop-color:#000000"
         id="path1449"
         d="m 66.643839,134.21889 c -0.889746,1.65786 -1.750936,3.76335 -0.772046,5.58759 0.155612,0.29 0.40576,0.51828 0.60864,0.77741 1.456766,1.18694 2.422125,1.03923 4.142843,0.58771 5.29e-4,-1.6e-4 5.29e-4,-0.001 -2.38e-4,-7.9e-4 v 0 c -1.720284,0.45144 -2.685413,0.5992 -4.141878,-0.58738 -0.202835,-0.25905 -0.452924,-0.48724 -0.608504,-0.77715 -0.978845,-1.82393 -0.117669,-3.92918 0.771977,-5.58675 2.65e-4,-5.3e-4 -5.29e-4,-0.001 -7.94e-4,-5.3e-4 z" />
      <path
         style="fill:#ffffff;stroke:#ffffff;stroke-width:1;-inkscape-stroke:none;paint-order:fill markers stroke;stop-color:#000000"
         id="path1451"
         d="m 72.133546,137.0062 c 0.674151,-0.47223 2.411265,-1.27409 2.444692,-2.21861 0.0062,-0.17496 -0.08122,-0.34058 -0.12183,-0.51086 -0.303511,-0.45007 -0.847979,-1.01819 -1.47982,-0.72445 -0.547767,0.25465 -0.926044,0.99132 -1.08835,1.50698 -0.125489,0.39868 -0.143838,0.82346 -0.215757,1.23519 0.02936,0.4176 -0.01482,0.84702 0.0881,1.25281 0.313205,1.23487 1.294135,2.05575 2.508977,2.33875 0.385583,0.0898 0.789392,0.0619 1.184087,0.0928 5.29e-4,5e-5 7.94e-4,-8e-4 7.2e-5,-8e-4 v 0 c -0.394608,-0.0309 -0.798322,-0.003 -1.183823,-0.0927 -1.214504,-0.28287 -2.195261,-1.10345 -2.508417,-2.33798 -0.102912,-0.40571 -0.05874,-0.83506 -0.08811,-1.25258 0.0719,-0.41165 0.09024,-0.83634 0.215691,-1.23495 0.162129,-0.51516 0.540301,-1.25184 1.087567,-1.50643 0.631333,-0.2937 1.175507,0.27403 1.478852,0.72372 0.04062,0.17011 0.127997,0.33555 0.121848,0.51034 -0.03322,0.94414 -1.770438,1.74609 -2.444289,2.21808 -5.29e-4,2.7e-4 -7.2e-5,0.001 5.29e-4,8e-4 z" />
      <path
         style="fill:#ffffff;stroke:#ffffff;stroke-width:1;-inkscape-stroke:none;paint-order:fill markers stroke;stop-color:#000000"
         id="path1453"
         d="m 81.103281,132.26278 c -0.588301,0.26848 -1.33627,0.6386 -1.478296,1.35727 -0.03238,0.16383 -0.01685,0.35744 0.078,0.49488 0.183875,0.2664 1.117267,0.73178 1.327465,0.84762 0.22915,0.17215 0.506185,0.29444 0.687456,0.51645 0.591923,0.72494 0.323628,1.74357 -0.113654,2.4591 -0.41723,0.68272 -0.766276,0.89201 -1.36089,1.38333 -0.19984,0.1055 -0.399679,0.211 -0.599522,0.3165 -5.29e-4,2.7e-4 -1.48e-4,10e-4 5.29e-4,8e-4 v 0 c 0.19989,-0.10555 0.39978,-0.21109 0.59967,-0.31663 0.59472,-0.49144 0.943862,-0.7008 1.361152,-1.38368 0.437534,-0.71601 0.705617,-1.7349 0.113363,-2.46021 -0.181305,-0.22204 -0.45838,-0.34435 -0.68757,-0.51652 -0.20929,-0.11534 -1.143418,-0.58126 -1.326964,-0.84696 -0.09481,-0.13724 -0.110422,-0.33065 -0.0781,-0.4943 0.141872,-0.71842 0.889645,-1.0884 1.477705,-1.35676 5.3e-4,-1.8e-4 5.3e-4,-10e-4 -2.54e-4,-10e-4 z" />
      <path
         style="fill:#ffffff;stroke:#ffffff;stroke-width:1;-inkscape-stroke:none;paint-order:fill markers stroke;stop-color:#000000"
         id="path1455"
         d="m 86.46833,133.48856 c 0.361744,0.70125 0.951513,1.34252 1.078447,2.15087 0.119557,0.76137 -0.04522,1.67221 -0.298217,2.38332 -0.136337,0.38321 -0.354465,0.73219 -0.531699,1.09828 -0.244531,0.24697 -0.425855,0.5794 -0.733594,0.74092 -0.560994,0.29444 -1.227188,0.10518 -1.701917,-0.22968 -0.190907,-0.13466 -0.301392,-0.35704 -0.452088,-0.53556 -5.29e-4,-5.3e-4 -0.0011,9e-5 -7.94e-4,5.3e-4 v 0 c 0.150813,0.1786 0.261398,0.40109 0.452438,0.53581 0.47517,0.33506 1.14156,0.52416 1.70294,0.22947 0.307811,-0.16159 0.48917,-0.49412 0.733753,-0.74118 0.177255,-0.36615 0.395409,-0.71519 0.531762,-1.09845 0.253072,-0.71136 0.417817,-1.62225 0.298212,-2.38386 -0.126947,-0.80837 -0.716679,-1.44967 -1.078431,-2.15094 -2.64e-4,-5.3e-4 -0.0011,-2.3e-4 -7.94e-4,2.7e-4 z" />
      <path
         style="fill:#ffffff;stroke:#ffffff;stroke-width:1;-inkscape-stroke:none;paint-order:fill markers stroke;stop-color:#000000"
         id="path1457"
         d="m 93.266209,133.48057 c -0.221716,0.12114 -0.468763,0.20447 -0.665147,0.36342 -0.974828,0.78901 -1.52082,1.945 -1.485191,3.20336 0.0099,0.34941 0.06358,0.71619 0.231497,1.02276 0.105349,0.19234 0.35796,0.25344 0.536938,0.38016 0.217982,-0.0978 0.478652,-0.13117 0.653944,-0.29354 0.466484,-0.43208 0.827087,-1.34183 1.054367,-1.8982 0.05037,-0.1233 0.354425,-1.12421 0.588986,-1.32797 0.06673,-0.058 0.176721,-0.004 0.265081,-0.006 0.840642,1.15406 1.32964,2.51592 2.014739,3.7622 2.64e-4,5.2e-4 0.0011,1.3e-4 7.93e-4,-5.3e-4 v 0 c -0.685294,-1.2465 -1.174075,-2.60893 -2.015611,-3.76271 -0.08863,0.002 -0.198948,-0.0514 -0.265883,0.007 -0.234487,0.20366 -0.538678,1.2049 -0.588994,1.32808 -0.227288,0.55642 -0.587616,1.46544 -1.05392,1.89771 -0.175027,0.16225 -0.43534,0.19575 -0.65301,0.29363 -0.178864,-0.12653 -0.431324,-0.18744 -0.536591,-0.37959 -0.167894,-0.30647 -0.221594,-0.67314 -0.231503,-1.02244 -0.03568,-1.25807 0.510173,-2.41382 1.484752,-3.20266 0.196318,-0.1589 0.443283,-0.2422 0.664925,-0.3633 7.93e-4,-1.6e-4 5.29e-4,-0.001 -2.28e-4,-0.001 z" />
      <path
         style="fill:#ffffff;stroke:#ffffff;stroke-width:1;-inkscape-stroke:none;paint-order:fill markers stroke;stop-color:#000000"
         id="path1459"
         d="m 97.669825,127.99431 c 1.317281,2.18215 2.174407,4.59817 3.134685,6.94783 0.71295,1.74447 0.37574,1.1437 1.10516,2.25044 0.0813,-0.0969 0.20911,-0.16909 0.24381,-0.2907 0.30197,-1.05837 -4e-5,-3.44612 1.33874,-3.90838 0.25354,-0.0875 0.53595,0.0233 0.80392,0.0349 0.26206,0.20013 0.56643,0.35455 0.78618,0.60039 0.6058,0.67773 1.02119,1.79017 0.36289,2.59061 -0.41369,0.50301 -1.27798,0.78524 -1.82349,1.02204 -0.7833,0.29074 -1.40434,0.576 -2.0323,1.11271 -5.3e-4,5.3e-4 10e-5,0.001 5.2e-4,7.9e-4 v 0 c 0.62786,-0.53671 1.24883,-0.82187 2.03205,-1.11261 0.5459,-0.23697 1.41011,-0.5191 1.82398,-1.0225 0.65839,-0.80081 0.24296,-1.91376 -0.36319,-2.59171 -0.2199,-0.24595 -0.52446,-0.4004 -0.7867,-0.60059 -0.26818,-0.0116 -0.55084,-0.12234 -0.80456,-0.0347 -1.33809,0.46231 -1.03809,2.84982 -1.33888,3.90847 -0.0345,0.12137 -0.16152,0.19387 -0.24228,0.2908 -0.72943,-1.10649 -0.39228,-0.5059 -1.10518,-2.25022 -0.960337,-2.34973 -1.817431,-4.76583 -3.134686,-6.94808 -2.64e-4,-5.3e-4 -0.0011,1e-5 -7.93e-4,5.2e-4 z" />
      <path
         style="fill:#ffffff;stroke:#ffffff;stroke-width:1;-inkscape-stroke:none;paint-order:fill markers stroke;stop-color:#000000"
         id="path1461"
         d="m 108.37956,133.21361 c 0.75303,1.46779 1.52631,2.97492 1.85618,4.60637 0.0529,0.26174 0.0585,0.53087 0.0878,0.79631 7e-5,5.3e-4 0.001,5.3e-4 0.001,-1e-4 v 0 c -0.0293,-0.26548 -0.0349,-0.53466 -0.0878,-0.79645 -0.32994,-1.63152 -1.10323,-3.13873 -1.85625,-4.60663 -2.6e-4,-5.3e-4 -10e-4,-7e-5 -7.9e-4,5.3e-4 z" />
      <path
         style="fill:#ffffff;stroke:#ffffff;stroke-width:1;-inkscape-stroke:none;paint-order:fill markers stroke;stop-color:#000000"
         id="path1463"
         d="m 112.60909,128.04979 c 0.0977,0.24401 0.20537,0.48424 0.29299,0.73203 0.29845,0.844 0.59893,1.90017 0.8532,2.74137 0.44622,1.4762 0.90726,2.94742 1.3708,4.41823 0.14638,0.50839 0.34196,1.00023 0.48996,1.50783 1.9e-4,7.9e-4 0.001,2.6e-4 0.001,-2.7e-4 v 0 c -0.14805,-0.50759 -0.34363,-0.99944 -0.49004,-1.50782 -0.46357,-1.4708 -0.92462,-2.94201 -1.37082,-4.41821 -0.25422,-0.84107 -0.55478,-1.89757 -0.85317,-2.74147 -0.0876,-0.24782 -0.19532,-0.48807 -0.29299,-0.73211 -2.6e-4,-5.3e-4 -0.001,-1.8e-4 -7.9e-4,5.3e-4 z" />
      <path
         style="fill:#ffffff;stroke:#ffffff;stroke-width:1;-inkscape-stroke:none;paint-order:fill markers stroke;stop-color:#000000"
         id="path1465"
         d="m 118.00276,133.2909 c 0.75387,1.35253 1.51647,2.7327 2.00483,4.20914 0.0791,0.23908 0.12443,0.48802 0.18664,0.73203 1.7e-4,5.3e-4 10e-4,5.3e-4 7.9e-4,-2.3e-4 v 0 c -0.0622,-0.24404 -0.1076,-0.49302 -0.1867,-0.73212 -0.48842,-1.4765 -1.25104,-2.85675 -2.00489,-4.20937 -2.7e-4,-5.3e-4 -10e-4,-1e-5 -8e-4,5.2e-4 z" />
      <path
         style="fill:#ffffff;stroke:#ffffff;stroke-width:1;-inkscape-stroke:none;paint-order:fill markers stroke;stop-color:#000000"
         id="path1467"
         d="m 123.14762,128.64908 c 0.83778,1.37351 1.50031,2.84634 2.15841,4.31135 0.33374,0.74292 0.87031,1.90278 1.10817,2.74024 0.0555,0.19551 0.0581,0.40232 0.0871,0.60348 9e-5,7.9e-4 0.001,5.3e-4 0.001,-1.4e-4 v 0 c -0.0291,-0.20122 -0.0316,-0.40808 -0.0872,-0.60365 -0.23789,-0.8374 -0.77455,-1.99743 -1.10825,-2.74029 -0.65814,-1.46507 -1.32066,-2.93799 -2.15844,-4.31159 -5.3e-4,-5.3e-4 -0.001,7e-5 -7.9e-4,5.3e-4 z" />
      <path
         style="fill:#ffffff;stroke:#ffffff;stroke-width:1;-inkscape-stroke:none;paint-order:fill markers stroke;stop-color:#000000"
         id="path1469"
         d="m 121.93103,133.24237 c 1.39605,-1.00612 3.08295,-1.52916 4.76367,-1.82217 0.39518,-0.0689 0.79641,-0.0969 1.19461,-0.14534 5.3e-4,-8e-5 5.3e-4,-10e-4 -1.1e-4,-8e-4 v 0 c -0.39823,0.0485 -0.79948,0.0765 -1.19468,0.14538 -1.6809,0.29307 -3.368,0.81614 -4.76419,1.82237 -5.3e-4,5.3e-4 2.4e-4,0.001 7.9e-4,5.3e-4 z" />
      <path
         style="fill:#ffffff;stroke:#ffffff;stroke-width:1;-inkscape-stroke:none;paint-order:fill markers stroke;stop-color:#000000"
         id="path1471"
         d="m 127.76789,131.5518 c 0.87556,0.61763 1.5561,1.46537 2.40448,2.11489 0.27901,0.21362 0.54981,0.47155 0.8874,0.5691 0.80167,0.23167 1.22517,-0.18857 1.86561,-0.54854 0.95385,-0.92594 0.56971,-0.47966 1.31643,-1.46822 0.11715,-0.15508 0.19281,-0.3512 0.34863,-0.46736 0.0445,-0.0332 0.0973,0.0825 0.0933,0.13789 -0.0238,0.33078 -0.11238,0.65371 -0.17385,0.9796 -0.12442,0.65966 -0.25586,1.31797 -0.38379,1.97696 -0.52287,2.61868 -0.87601,5.27093 -1.4966,7.87029 -0.13307,0.55734 -0.30835,1.10375 -0.46252,1.65562 -1.6e-4,5.3e-4 7.9e-4,8e-4 7.9e-4,2.4e-4 v 0 c 0.15416,-0.5519 0.32942,-1.09833 0.46248,-1.65569 0.62054,-2.59938 0.97369,-5.25162 1.49664,-7.8703 0.12795,-0.65899 0.25948,-1.31729 0.38387,-1.97696 0.0615,-0.32612 0.15041,-0.64928 0.17376,-0.98032 0.004,-0.0557 -0.0501,-0.17117 -0.0949,-0.1379 -0.15601,0.1159 -0.23146,0.31229 -0.3486,0.46737 -0.74652,0.98835 -0.36257,0.54226 -1.31614,1.46798 -0.63987,0.35973 -1.06358,0.78004 -1.86467,0.54857 -0.33754,-0.0975 -0.60831,-0.35541 -0.88729,-0.56901 -0.84842,-0.64955 -1.52898,-1.49734 -2.40457,-2.11502 -5.2e-4,-2.7e-4 -0.001,5.3e-4 -5.2e-4,7.9e-4 z" />
    </g>
    <g
       id="g1734"
       transform="matrix(0.10288704,-0.55911831,0.55911831,0.10288704,-15.555551,162.13102)">
      <path
         style="fill:#ffffff;stroke:#ffffff;stroke-width:1;-inkscape-stroke:none;paint-order:fill markers stroke;stop-color:#000000"
         id="path1621"
         d="m 111.7654,46.588547 c -0.40324,0.205711 0.19339,-1.128411 -0.13646,-1.026591 -0.81438,0.251391 -0.68439,1.572392 -0.70812,2.055267 -0.11167,2.272716 -0.12402,5.048094 -0.15383,7.274547 -0.0577,3.702931 0.0503,7.407553 -0.0383,11.110211 -0.0379,1.581751 0.10037,1.118889 -0.18811,1.89202 -0.0891,0.33156 0.37977,0.457597 0.4689,0.126037 v 0 c 0.17451,-0.904714 0.10003,-0.391676 0.10653,-2.016684 0.0148,-3.701838 -0.0828,-7.403629 -0.012,-11.105456 0.0316,-1.376183 0.0455,-2.752887 0.0949,-4.128543 0.0373,-1.036923 0.0926,-2.073336 0.16513,-3.108393 0.0369,-0.527252 0.44073,-1.566408 -0.21266,-2.035943 -0.28021,-0.201358 0.49722,1.352005 0.13474,1.02634 0.0444,0.338905 0.5237,0.27609 0.47928,-0.06281 z" />
      <path
         style="fill:#ffffff;stroke:#ffffff;stroke-width:1;-inkscape-stroke:none;paint-order:fill markers stroke;stop-color:#000000"
         id="path1623"
         d="m 109.07363,49.475675 c 2.79791,-0.663821 5.38116,-2.010534 8.16735,-2.702975 0.31879,-0.08633 0.1967,-0.537163 -0.12209,-0.450834 v 0 c -2.7522,0.804891 -5.35428,2.092655 -8.17088,2.691095 -0.32719,0.08883 -0.20157,0.55154 0.12562,0.462714 z" />
      <path
         style="fill:#ffffff;stroke:#ffffff;stroke-width:1;-inkscape-stroke:none;paint-order:fill markers stroke;stop-color:#000000"
         id="path1625"
         d="m 109.24496,56.120723 c 0.27153,0.109476 0.52533,0.283217 0.81459,0.328435 1.17869,0.184258 2.3218,-0.07746 3.46444,-0.336825 0.70681,-0.160441 1.39998,-0.375934 2.10019,-0.563066 2.24767,-0.600691 1.25926,-0.363444 3.19479,-0.786669 0.30716,-0.06964 0.20867,-0.504029 -0.0985,-0.434388 v 0 c -2.14184,0.502753 -0.68309,0.143791 -3.20327,0.820079 -0.68879,0.184838 -1.37175,0.393983 -2.0679,0.548825 -1.01743,0.226303 -2.1541,0.47003 -3.21658,0.317003 -0.24194,-0.03485 -0.45516,-0.178412 -0.68274,-0.267616 -0.26461,-0.215691 -0.56964,0.158531 -0.30503,0.374222 z" />
      <path
         style="fill:#ffffff;stroke:#ffffff;stroke-width:1;-inkscape-stroke:none;paint-order:fill markers stroke;stop-color:#000000"
         id="path1627"
         d="m 121.68019,56.393415 c 0.78548,0.803704 1.4471,1.733037 1.96306,2.731977 0.14606,0.282781 0.27365,0.576598 0.37284,0.879022 0.0333,0.101537 -0.0805,0.355063 0.0204,0.319926 0.1538,-0.05355 0.17065,-0.277442 0.25597,-0.41616 -0.0645,-0.245727 -0.16913,-0.484299 -0.19362,-0.737177 -0.21026,-2.171599 0.74249,-4.08637 2.28354,-5.573972 0.25852,-0.249547 0.58231,-0.421105 0.87346,-0.631655 0.19458,-0.05952 0.38915,-0.119031 0.58372,-0.178549 0.31664,-0.108183 0.16364,-0.555972 -0.15299,-0.447789 v 0 c -0.23436,0.08703 -0.46871,0.174067 -0.70306,0.261099 -0.31107,0.238493 -0.6553,0.439058 -0.93322,0.715478 -1.6032,1.594604 -2.65375,3.673441 -2.40151,5.977718 0.0342,0.312608 0.16916,0.605777 0.25373,0.908667 0.20495,0.02003 0.44692,0.179308 0.61485,0.06012 0.12177,-0.08642 -0.0279,-0.300451 -0.0781,-0.4411 -0.11318,-0.317545 -0.25238,-0.626409 -0.40886,-0.925005 -0.54533,-1.040604 -1.22853,-2.014492 -2.03731,-2.866395 -0.25724,-0.221303 -0.5702,0.142491 -0.31296,0.363791 z" />
      <path
         style="fill:#ffffff;stroke:#ffffff;stroke-width:1;-inkscape-stroke:none;paint-order:fill markers stroke;stop-color:#000000"
         id="path1629"
         d="m 129.71139,55.595347 c 1.133,-0.389093 2.26437,-0.80863 3.33405,-1.352677 0.9149,-0.46532 1.75343,-0.922118 2.43368,-1.715386 0.25691,-0.299596 0.40212,-0.679225 0.60318,-1.018839 0.0125,-0.302612 0.14988,-0.626607 0.0375,-0.907836 -0.30364,-0.759531 -1.16003,-0.747897 -1.77473,-0.444277 -0.93424,0.461444 -1.82723,1.671193 -2.27794,2.543524 -0.27197,0.526394 -0.40791,1.112583 -0.61187,1.668875 0.0153,0.517406 -0.13471,1.067091 0.0458,1.552215 0.41722,1.121074 1.4677,1.515936 2.51762,1.735699 0.52995,0.110924 1.08075,0.06752 1.62112,0.101287 0.30944,0.01786 0.33469,-0.419756 0.0252,-0.437612 v 0 c -0.50097,-0.02633 -1.00937,0.01085 -1.50293,-0.07899 -0.79814,-0.145299 -1.85997,-0.468093 -2.21943,-1.33948 -0.17649,-0.427863 -0.0541,-0.924089 -0.0812,-1.386136 0.1871,-0.524645 0.30871,-1.077492 0.56131,-1.573932 0.43699,-0.858838 1.16731,-1.807832 2.00886,-2.331953 0.17694,-0.110199 0.99338,-0.425852 1.21941,-0.0098 0.10866,0.199985 0.0236,0.454586 0.0353,0.681881 -0.16736,0.30412 -0.27996,0.645597 -0.50208,0.91236 -0.63869,0.767062 -1.44454,1.204148 -2.31941,1.64574 -1.05441,0.532218 -2.1727,0.934622 -3.29531,1.294236 -0.32608,0.100264 -0.18429,0.561411 0.14179,0.461148 z" />
      <path
         style="fill:#ffffff;stroke:#ffffff;stroke-width:1;-inkscape-stroke:none;paint-order:fill markers stroke;stop-color:#000000"
         id="path1631"
         d="m 145.23367,49.722722 c 0.0604,-0.627891 0.3128,-2.036458 -0.52306,-2.35689 -0.31233,-0.119732 -0.70483,-0.110461 -1.00261,0.0419 -1.09274,0.559118 -1.36824,1.615538 -1.85425,2.623929 -0.16366,1.039743 -0.54334,1.971066 0.0751,2.960065 0.18675,0.298638 0.49757,0.625248 0.84977,0.628023 1.47418,0.01161 2.56191,-2.345465 3.12117,-3.378274 0.15245,-0.330803 0.7458,-1.214813 0.45734,-0.992404 -0.81367,0.627372 -0.87551,2.587461 -0.94739,3.272716 -0.21232,2.024036 -0.31098,3.88771 -0.1853,5.926735 0.0563,0.913654 0.21817,1.817727 0.32726,2.726592 0.22739,0.633262 0.33316,1.324539 0.68218,1.899788 0.55073,0.9077 1.35484,1.225735 2.26224,0.482925 0.7668,-0.627708 1.23952,-2.105406 1.332,-3.032995 0.0449,-0.450146 -0.0736,-0.901761 -0.11037,-1.352643 -0.21248,-0.30099 -0.35134,-0.670819 -0.63743,-0.902965 -0.57015,-0.462647 -1.33411,-0.483512 -2.00957,-0.580297 -0.32412,-0.04399 -0.38634,0.414385 -0.0622,0.458377 v 0 c 0.49086,0.06247 1.2682,0.09805 1.70485,0.401223 0.23778,0.165094 0.37135,0.444156 0.55703,0.666231 0.0444,0.401947 0.16616,0.802807 0.1331,1.205841 -0.0416,0.506661 -0.16653,1.010857 -0.35372,1.483506 -0.37063,0.935876 -1.41203,2.601417 -2.41995,1.024151 -0.34608,-0.54157 -0.45896,-1.200684 -0.68844,-1.801029 -0.34317,-2.728124 -0.46601,-2.858421 -0.36061,-5.719971 0.0348,-0.943729 0.12908,-1.885059 0.23912,-2.822996 0.0838,-0.714052 0.31744,-1.411047 0.34188,-2.129581 0.016,-0.469926 0.17212,-1.136705 -0.22209,-1.392999 -0.29656,-0.192808 -0.28314,0.648321 -0.42472,0.972481 -0.59049,1.1019 -0.79776,1.671037 -1.67212,2.583804 -0.2343,0.2446 -0.47622,0.557207 -0.81028,0.61318 -0.73071,0.122433 -0.99898,-1.120108 -1.01367,-1.449533 -0.0235,-0.525973 0.15039,-1.042199 0.22559,-1.563298 0.50105,-1.059305 0.59481,-1.652646 1.52846,-2.346841 0.16567,-0.123185 0.38859,-0.215932 0.59216,-0.181523 0.73446,0.12415 0.43944,1.509794 0.39863,1.941139 -0.0648,0.332275 0.40511,0.423903 0.46991,0.09163 z" />
      <path
         style="fill:#ffffff;stroke:#ffffff;stroke-width:1;-inkscape-stroke:none;paint-order:fill markers stroke;stop-color:#000000"
         id="path1633"
         d="m 150.97049,47.042202 c 0.0734,0.894193 0.13357,1.842833 0.28714,2.725361 0.0776,0.445964 0.11571,0.911752 0.30341,1.323666 0.3528,0.774229 0.90325,1.003562 1.65154,0.38885 0.39834,-0.327234 0.58874,-0.846413 0.88312,-1.269622 0.86297,-2.176639 0.56089,-1.2334 1.16781,-3.483988 0.0818,-0.303218 0.26256,-1.447051 0.62828,-1.851985 0.0863,-0.09555 -0.15026,0.229965 -0.14362,0.358537 0.0168,0.324868 0.14088,0.635166 0.21132,0.952751 0.31454,2.074365 0.41799,4.172162 0.57293,6.262391 0.027,0.322964 0.48377,0.284739 0.45674,-0.03822 v 0 c -0.19681,-2.109489 -0.31089,-4.226701 -0.58439,-6.328476 -0.0413,-0.16886 -0.0913,-1.729759 -0.93815,-1.419929 -0.20935,0.07659 -0.21411,0.394184 -0.28128,0.606753 -0.13918,0.440446 -0.21771,0.897866 -0.33529,1.344562 -0.5534,2.10234 -0.32228,1.346687 -1.12235,3.349495 -0.23684,0.364673 -0.43662,0.756293 -0.71052,1.094021 -0.13561,0.167201 -0.28931,0.417668 -0.50413,0.403675 -0.66412,-0.04326 -0.79149,-1.597158 -0.81723,-1.745795 -0.16112,-0.930466 -0.19269,-1.761083 -0.25289,-2.694263 -0.0157,-0.33406 -0.48815,-0.311841 -0.47244,0.02222 z" />
      <path
         style="fill:#ffffff;stroke:#ffffff;stroke-width:1;-inkscape-stroke:none;paint-order:fill markers stroke;stop-color:#000000"
         id="path1635"
         d="m 158.72012,49.923914 c 1.87855,-1.207434 3.73931,-2.213041 4.18448,-4.63849 0.0697,-0.380063 0.001,-0.772824 0.001,-1.159235 -0.14415,-0.2437 -0.16463,-0.639215 -0.43244,-0.731094 -0.96723,-0.331819 -1.65338,0.95731 -1.95207,1.484874 -0.4922,0.869349 -1.08561,2.468726 -1.16417,3.477466 -0.0406,0.521139 0.11003,1.039627 0.16505,1.559441 0.25294,0.368535 0.40534,0.832024 0.75883,1.105609 1.12718,0.872403 2.9161,0.627763 4.10068,0.07251 0.38899,-0.182333 0.72215,-0.46553 1.08323,-0.698294 0.26704,-0.174911 0.0197,-0.552566 -0.24736,-0.377656 v 0 c -0.32589,0.217202 -0.6258,0.479663 -0.97768,0.651606 -0.78653,0.384328 -1.59213,0.565888 -2.46989,0.446944 -0.38957,-0.05279 -0.79995,-0.135932 -1.12322,-0.359651 -0.3087,-0.213637 -0.45769,-0.595198 -0.68653,-0.892799 -0.0618,-0.469694 -0.21811,-0.936461 -0.18548,-1.409083 0.10168,-1.472684 0.93601,-3.2565 1.85989,-4.39923 0.12569,-0.155472 0.24668,-0.419822 0.44574,-0.401299 0.20002,0.0186 0.24549,0.318027 0.36824,0.477039 0.0106,0.337126 0.0861,0.678484 0.0318,1.011375 -0.37596,2.304804 -2.23836,3.271805 -4.02603,4.379714 -0.28302,0.187774 -0.0175,0.588025 0.26555,0.400251 z" />
      <path
         style="fill:#ffffff;stroke:#ffffff;stroke-width:1;-inkscape-stroke:none;paint-order:fill markers stroke;stop-color:#000000"
         id="path1637"
         d="m 167.42809,44.452508 c 0.75356,0.808797 1.27909,1.785765 1.75055,2.776638 0.13203,0.277492 0.23397,0.568692 0.36703,0.845695 0.0655,0.136348 0.0779,0.371999 0.22773,0.392504 0.20866,0.02855 0.3762,-0.18942 0.5643,-0.28413 0.22764,-1.334974 0.52586,-2.672932 1.05267,-3.926758 0.25909,-0.616678 0.70762,-1.689174 1.43107,-2.022102 0.17453,-0.08032 0.37956,0.05991 0.56934,0.08986 0.14063,0.206582 0.30818,0.397209 0.4219,0.619744 0.82636,1.617086 1.03791,3.380285 1.25552,5.148538 0.045,0.333666 0.51686,0.270058 0.47188,-0.06361 v 0 c -0.20894,-1.424585 -0.37961,-2.802194 -0.86232,-4.174492 -0.14512,-0.412541 -0.27514,-0.839896 -0.51012,-1.208725 -0.19723,-0.309589 -0.50983,-0.528251 -0.76474,-0.792377 -0.29933,0.01738 -0.63085,-0.08404 -0.89797,0.05212 -0.74824,0.381376 -1.24738,1.544529 -1.52599,2.209191 -0.51399,1.226177 -0.84461,2.534859 -1.07291,3.84116 0.0929,0.08593 0.19247,0.35038 0.27875,0.257794 0.0888,-0.09523 -0.15653,-0.209661 -0.21539,-0.325776 -0.14275,-0.281593 -0.2504,-0.579855 -0.38781,-0.8641 -0.50217,-1.038825 -1.04892,-2.067898 -1.83321,-2.925897 -0.25083,-0.226468 -0.57111,0.128262 -0.32028,0.354727 z" />
      <path
         style="fill:#ffffff;stroke:#ffffff;stroke-width:1;-inkscape-stroke:none;paint-order:fill markers stroke;stop-color:#000000"
         id="path1639"
         d="m 180.17488,40.372339 c -0.23459,0.283792 -0.52164,0.531384 -0.70378,0.851379 -0.4807,0.844521 -0.8056,1.984772 -0.85813,2.952332 -0.0504,0.929172 -0.007,1.758238 0.94269,2.243643 0.41004,0.209579 0.90879,0.149368 1.36319,0.224051 1.83602,-0.356719 0.97787,-0.06125 2.58439,-0.856958 0.28437,-0.143558 0.0813,-0.545714 -0.20301,-0.402157 v 0 c -1.44486,0.744657 -0.67348,0.46653 -2.3221,0.812007 -0.36696,-0.03423 -0.7583,0.0332 -1.10088,-0.102696 -0.86113,-0.341587 -0.86701,-1.023871 -0.83066,-1.841992 0.0401,-0.902414 0.33594,-1.94592 0.77903,-2.736096 0.15605,-0.278296 0.40493,-0.493194 0.60739,-0.739791 0.28548,-0.182528 0.0273,-0.586247 -0.25813,-0.403722 z" />
      <path
         style="fill:#ffffff;stroke:#ffffff;stroke-width:1;-inkscape-stroke:none;paint-order:fill markers stroke;stop-color:#000000"
         id="path1641"
         d="m 184.21059,39.176465 c 0.58193,0.96834 1.033,2.027033 1.69618,2.946468 0.37491,0.519764 0.90396,1.243772 1.66736,1.242243 0.38748,-7.94e-4 0.73419,-0.248065 1.10128,-0.372097 0.34734,-0.321987 0.73174,-0.608121 1.04202,-0.965962 0.99218,-1.144275 1.65495,-2.554139 2.24278,-3.934142 0.0905,-0.212558 0.32659,-0.428159 0.25044,-0.64629 -0.0559,-0.160057 -0.33519,-0.05105 -0.50279,-0.07657 -1.52864,4.733485 -2.63602,9.595614 -4.25596,14.300379 -0.25508,0.740826 -0.55248,1.466398 -0.82873,2.199595 -0.0995,0.270069 0.28243,0.410792 0.38194,0.140724 v 0 c 0.26749,-0.742505 0.5531,-1.478729 0.80246,-2.227516 1.56286,-4.692965 2.67979,-9.524923 4.3404,-14.18712 -0.1272,-0.104177 -0.23615,-0.389191 -0.3816,-0.312528 -0.19599,0.103306 -0.13434,0.422698 -0.21723,0.628158 -0.69991,1.734748 -1.58232,3.435614 -3.0418,4.652737 -0.25789,0.121084 -0.48987,0.338209 -0.77367,0.363249 -0.66969,0.05909 -1.12669,-0.601599 -1.44328,-1.038293 -0.66501,-0.917274 -1.10621,-1.980774 -1.66545,-2.960021 -0.17464,-0.292994 -0.589,-0.04601 -0.41435,0.246986 z" />
    </g>
  </g>
</svg>
