<?xml version="1.0" encoding="UTF-8" standalone="no"?>
<!-- Created with Inkscape (http://www.inkscape.org/) -->

<svg
   xmlns:dc="http://purl.org/dc/elements/1.1/"
   xmlns:cc="http://creativecommons.org/ns#"
   xmlns:rdf="http://www.w3.org/1999/02/22-rdf-syntax-ns#"
   xmlns:svg="http://www.w3.org/2000/svg"
   xmlns="http://www.w3.org/2000/svg"
   xmlns:sodipodi="http://sodipodi.sourceforge.net/DTD/sodipodi-0.dtd"
   xmlns:inkscape="http://www.inkscape.org/namespaces/inkscape"
   width="187mm"
   height="90mm"
   viewBox="0 0 187 90"
   version="1.1"
   id="svg1570"
   inkscape:version="0.92.5 (2060ec1f9f, 2020-04-08)"
   sodipodi:docname="union-problem.svg">
  <defs
     id="defs1564" />
  <sodipodi:namedview
     id="base"
     pagecolor="#ffffff"
     bordercolor="#666666"
     borderopacity="1.0"
     inkscape:pageopacity="0.0"
     inkscape:pageshadow="2"
     inkscape:zoom="1.4"
     inkscape:cx="237.21841"
     inkscape:cy="123.08078"
     inkscape:document-units="mm"
     inkscape:current-layer="layer1"
     showgrid="false"
     inkscape:window-width="2488"
     inkscape:window-height="1343"
     inkscape:window-x="1272"
     inkscape:window-y="231"
     inkscape:window-maximized="1" />
  <metadata
     id="metadata1567">
    <rdf:RDF>
      <cc:Work
         rdf:about="">
        <dc:format>image/svg+xml</dc:format>
        <dc:type
           rdf:resource="http://purl.org/dc/dcmitype/StillImage" />
        <dc:title></dc:title>
      </cc:Work>
    </rdf:RDF>
  </metadata>
  <g
     inkscape:label="Layer 1"
     inkscape:groupmode="layer"
     id="layer1"
     transform="translate(0,-207)">
    <rect
       ry="0.11986756"
       rx="0.2128717"
       y="249.75398"
       x="86.380348"
       height="2.7847276"
       width="11.155249"
       id="rect3021-8"
       style="color:#000000;display:inline;overflow:visible;visibility:visible;fill:#008000;fill-opacity:1;fill-rule:nonzero;stroke:#cccccc;stroke-width:0.32099602;stroke-linecap:butt;stroke-linejoin:miter;stroke-miterlimit:4;stroke-dasharray:none;stroke-dashoffset:0;stroke-opacity:1;marker:none;enable-background:accumulate" />
    <path
       style="color:#000000;display:inline;overflow:visible;visibility:visible;fill:none;stroke:#008000;stroke-width:0.34014037px;stroke-linecap:butt;stroke-linejoin:miter;stroke-miterlimit:4;stroke-dasharray:none;stroke-dashoffset:0;stroke-opacity:1;marker:none;enable-background:accumulate"
       d="m 45.501004,251.59355 c 0.970146,0 1.426153,0.49132 3.402118,0 1.975963,-0.49132 4.167982,-3.46336 6.608203,-3.46336 2.440221,0 3.5249,2.6967 6.608195,3.46336 3.083304,0.76664 7.935567,0 11.646377,0 3.710805,0 7.345238,1.4334 10.618482,0 3.273234,-1.43337 4.132924,-7.95324 7.640116,-7.95324 3.507193,0 3.444571,5.47885 7.640143,7.31611 4.195542,1.83731 12.629922,0.63713 16.575182,0.63713 3.94524,0 4.67456,1.29855 7.09623,0 2.42168,-1.29856 2.56069,-7.85768 5.58399,-7.85768 3.02329,0 2.57732,6.24546 5.58397,7.85768 3.00666,1.61222 11.00137,0 11.00137,0"
       id="path3025"
       inkscape:connector-curvature="0"
       sodipodi:nodetypes="czzzzzzzzzzzc" />
    <rect
       style="color:#000000;display:inline;overflow:visible;visibility:visible;fill:#008000;fill-opacity:1;fill-rule:nonzero;stroke:#cccccc;stroke-width:0.27585045;stroke-linecap:butt;stroke-linejoin:miter;stroke-miterlimit:4;stroke-dasharray:none;stroke-dashoffset:0;stroke-opacity:1;marker:none;enable-background:accumulate"
       id="rect3819-9"
       width="8.093235"
       height="2.8345742"
       x="51.488205"
       y="249.72919"
       rx="0.15444037"
       ry="0.12201317" />
    <rect
       style="color:#000000;display:inline;overflow:visible;visibility:visible;fill:#008000;fill-opacity:1;fill-rule:nonzero;stroke:#cccccc;stroke-width:0.32099602;stroke-linecap:butt;stroke-linejoin:miter;stroke-miterlimit:4;stroke-dasharray:none;stroke-dashoffset:0;stroke-opacity:1;marker:none;enable-background:accumulate"
       id="rect3821-7"
       width="11.155249"
       height="2.7847276"
       x="123.42612"
       y="249.75398"
       rx="0.2128717"
       ry="0.11986756" />
    <path
       inkscape:connector-curvature="0"
       id="path3823-3"
       d="M 44.302818,252.83598 H 147.80851"
       style="fill:none;stroke:#999999;stroke-width:0.4837046px;stroke-linecap:butt;stroke-linejoin:miter;stroke-opacity:1"
       sodipodi:nodetypes="cc" />
    <rect
       style="color:#000000;display:inline;overflow:visible;visibility:visible;fill:#0000aa;fill-opacity:1;fill-rule:nonzero;stroke:#cccccc;stroke-width:0.32099602;stroke-linecap:butt;stroke-linejoin:miter;stroke-miterlimit:4;stroke-dasharray:none;stroke-dashoffset:0;stroke-opacity:1;marker:none;enable-background:accumulate"
       id="rect3936-6"
       width="13.831991"
       height="2.7847307"
       x="86.380348"
       y="261.63248"
       rx="0.2128717"
       ry="0.11986756" />
    <path
       sodipodi:nodetypes="cazzzzzzzzzzc"
       inkscape:connector-curvature="0"
       id="path3938-1"
       d="m 45.830261,262.91597 c 0,0 2.446284,0.30128 3.402714,0 4.170422,-1.31369 3.821941,-6.64647 6.262588,-6.64647 2.440647,0 3.525521,5.90653 6.609355,6.67318 3.083843,0.76663 7.936956,0 11.648415,0 3.711455,0 7.346524,1.43338 10.620342,0 3.273806,-1.43337 4.133647,-7.95321 7.641453,-7.95321 3.507807,0 7.182764,7.08666 10.220232,7.95321 3.03748,0.86655 10.05338,-0.63713 13.99933,-0.63713 3.94593,0 4.67538,1.93566 7.09748,0.63713 2.42209,-1.29855 2.56113,-5.00449 5.58496,-5.00449 3.02382,0 2.57778,3.39227 5.58495,5.00449 3.00719,1.6122 11.00329,0 11.00329,0"
       style="color:#000000;display:inline;overflow:visible;visibility:visible;fill:none;stroke:#0000aa;stroke-width:0.34016955px;stroke-linecap:butt;stroke-linejoin:miter;stroke-miterlimit:4;stroke-dasharray:none;stroke-dashoffset:0;stroke-opacity:1;marker:none;enable-background:accumulate" />
    <rect
       ry="0.12201317"
       rx="0.15444037"
       y="261.6076"
       x="51.488205"
       height="2.8345742"
       width="8.093235"
       id="rect3940-2"
       style="color:#000000;display:inline;overflow:visible;visibility:visible;fill:#0000aa;fill-opacity:1;fill-rule:nonzero;stroke:#cccccc;stroke-width:0.27585045;stroke-linecap:butt;stroke-linejoin:miter;stroke-miterlimit:4;stroke-dasharray:none;stroke-dashoffset:0;stroke-opacity:1;marker:none;enable-background:accumulate" />
    <rect
       ry="0.11986756"
       rx="0.1769291"
       y="261.63248"
       x="124.36788"
       height="2.7847276"
       width="9.2717257"
       id="rect3942-9"
       style="color:#000000;display:inline;overflow:visible;visibility:visible;fill:#0000aa;fill-opacity:1;fill-rule:nonzero;stroke:#cccccc;stroke-width:0.29264447;stroke-linecap:butt;stroke-linejoin:miter;stroke-miterlimit:4;stroke-dasharray:none;stroke-dashoffset:0;stroke-opacity:1;marker:none;enable-background:accumulate" />
    <path
       sodipodi:nodetypes="cc"
       style="fill:none;stroke:#999999;stroke-width:0.4837046px;stroke-linecap:butt;stroke-linejoin:miter;stroke-opacity:1"
       d="M 44.302816,264.71426 H 147.80851"
       id="path3944-3"
       inkscape:connector-curvature="0" />
    <rect
       ry="0.11986756"
       rx="0.2128717"
       y="273.65561"
       x="69.113434"
       height="2.7847276"
       width="12.020286"
       id="rect1514"
       style="color:#000000;display:inline;overflow:visible;visibility:visible;fill:#550000;fill-opacity:1;fill-rule:nonzero;stroke:#cccccc;stroke-width:0.32099599;stroke-linecap:butt;stroke-linejoin:miter;stroke-miterlimit:4;stroke-dasharray:none;stroke-dashoffset:0;stroke-opacity:1;marker:none;enable-background:accumulate" />
    <path
       style="color:#000000;display:inline;overflow:visible;visibility:visible;fill:#000000;fill-opacity:0;stroke:#550000;stroke-width:0.33976558px;stroke-linecap:butt;stroke-linejoin:miter;stroke-miterlimit:4;stroke-dasharray:none;stroke-dashoffset:0;stroke-opacity:1;marker:none;enable-background:accumulate"
       d="m 45.830212,275.47963 c 0,0 2.445888,0.30061 3.402163,0 4.169747,-1.31078 3.821322,-6.63177 6.261573,-6.63177 2.440252,0 3.52495,5.89346 6.608285,6.65841 4.507946,0.41445 4.941414,0.37118 5.861124,0 3.273275,-1.4302 4.132985,-2.59776 7.640221,-2.59776 3.507226,0 5.6048,1.45708 9.611342,2.59776 4.006532,1.14067 20.6722,0 31.00832,0 2.36543,0 4.85126,0.36733 7.09633,0 2.20372,-0.36056 3.26221,-2.05327 5.58406,-2.05327 2.32184,0 3.38033,1.69271 5.58404,2.05327 3.4806,0.56946 11.00151,0 11.00151,0"
       id="path1516"
       inkscape:connector-curvature="0"
       sodipodi:nodetypes="cazcczzaaaac" />
    <rect
       style="color:#000000;display:inline;overflow:visible;visibility:visible;fill:#550000;fill-opacity:1;fill-rule:nonzero;stroke:#cccccc;stroke-width:0.27585045;stroke-linecap:butt;stroke-linejoin:miter;stroke-miterlimit:4;stroke-dasharray:none;stroke-dashoffset:0;stroke-opacity:1;marker:none;enable-background:accumulate"
       id="rect1518"
       width="8.093235"
       height="2.8345742"
       x="51.488205"
       y="273.63074"
       rx="0.15444037"
       ry="0.12201317" />
    <rect
       style="color:#000000;display:inline;overflow:visible;visibility:visible;fill:#550000;fill-opacity:1;fill-rule:nonzero;stroke:#cccccc;stroke-width:0.23850015;stroke-linecap:butt;stroke-linejoin:miter;stroke-miterlimit:4;stroke-dasharray:none;stroke-dashoffset:0;stroke-opacity:1;marker:none;enable-background:accumulate"
       id="rect1520"
       width="6.1582489"
       height="2.7847276"
       x="125.92459"
       y="273.65561"
       rx="0.11751571"
       ry="0.11986756" />
    <path
       inkscape:connector-curvature="0"
       id="path1522"
       d="M 44.302816,276.73717 H 147.80851"
       style="fill:none;stroke:#999999;stroke-width:0.4837046px;stroke-linecap:butt;stroke-linejoin:miter;stroke-opacity:1"
       sodipodi:nodetypes="cc" />
    <path
       sodipodi:nodetypes="cc"
       style="fill:none;stroke:#999999;stroke-width:0.4837046px;stroke-linecap:butt;stroke-linejoin:miter;stroke-opacity:1"
       d="M 44.302816,288.89002 H 147.80851"
       id="path2742"
       inkscape:connector-curvature="0" />
    <rect
       ry="0.11986756"
       rx="0.2128717"
       y="286.18668"
       x="86.380348"
       height="2.7847307"
       width="13.831991"
       id="rect2744"
       style="color:#000000;display:inline;overflow:visible;visibility:visible;fill:#000000;fill-opacity:1;fill-rule:nonzero;stroke:#cccccc;stroke-width:0.32099602;stroke-linecap:butt;stroke-linejoin:miter;stroke-miterlimit:4;stroke-dasharray:none;stroke-dashoffset:0;stroke-opacity:1;marker:none;enable-background:accumulate" />
    <rect
       style="color:#000000;display:inline;overflow:visible;visibility:visible;fill:#000000;fill-opacity:1;fill-rule:nonzero;stroke:#cccccc;stroke-width:0.32099602;stroke-linecap:butt;stroke-linejoin:miter;stroke-miterlimit:4;stroke-dasharray:none;stroke-dashoffset:0;stroke-opacity:1;marker:none;enable-background:accumulate"
       id="rect2746"
       width="11.155249"
       height="2.7847276"
       x="123.42612"
       y="286.18668"
       rx="0.2128717"
       ry="0.11986756" />
    <path
       style="color:#000000;display:inline;overflow:visible;visibility:visible;fill:#000000;fill-opacity:1;fill-rule:nonzero;stroke:#cccccc;stroke-width:1.21321321;stroke-linecap:butt;stroke-linejoin:miter;stroke-miterlimit:4;stroke-dasharray:none;stroke-dashoffset:0;stroke-opacity:1;marker:none;enable-background:accumulate"
       d="M 237.50977 299.13867 C 237.26427 299.13867 237.06641 299.34537 237.06641 299.60352 L 237.06641 309.49805 C 237.06641 309.75619 237.26427 309.96289 237.50977 309.96289 L 261.64648 309.96289 C 261.77722 309.96289 261.88973 309.90072 261.9707 309.80664 C 261.9884 309.80729 262.00348 309.8125 262.02148 309.8125 L 305.8418 309.8125 L 313.8418 309.8125 C 314.28752 309.8125 314.64648 309.61036 314.64648 309.35938 L 314.64648 299.74219 C 314.64648 299.4912 314.28752 299.28906 313.8418 299.28906 L 305.8418 299.28906 L 262.02148 299.28906 C 262.00417 299.28906 261.9897 299.29432 261.97266 299.29492 C 261.89163 299.19975 261.77808 299.13867 261.64648 299.13867 L 237.50977 299.13867 z "
       transform="matrix(0.26458333,0,0,0.26458333,0,207)"
       id="rect2748" />
    <rect
       ry="0.12201317"
       rx="0.15444037"
       y="286.15939"
       x="51.488205"
       height="2.8345742"
       width="8.093235"
       id="rect2750"
       style="color:#000000;display:inline;overflow:visible;visibility:visible;fill:#000000;fill-opacity:1;fill-rule:nonzero;stroke:#cccccc;stroke-width:0.27585045;stroke-linecap:butt;stroke-linejoin:miter;stroke-miterlimit:4;stroke-dasharray:none;stroke-dashoffset:0;stroke-opacity:1;marker:none;enable-background:accumulate" />
    <rect
       style="color:#000000;display:inline;overflow:visible;visibility:visible;fill:#008000;fill-opacity:1;fill-rule:nonzero;stroke:#cccccc;stroke-width:0.32099602;stroke-linecap:butt;stroke-linejoin:miter;stroke-miterlimit:4;stroke-dasharray:none;stroke-dashoffset:0;stroke-opacity:1;marker:none;enable-background:accumulate"
       id="rect837"
       width="11.155249"
       height="2.7847276"
       x="86.380348"
       y="216.94556"
       rx="0.2128717"
       ry="0.11986756" />
    <path
       sodipodi:nodetypes="czzzzzzzzzzzc"
       inkscape:connector-curvature="0"
       id="path839"
       d="m 45.501004,218.78525 c 0.970146,0 1.426153,0.49132 3.402118,0 1.975963,-0.49132 4.167982,-3.46336 6.608203,-3.46336 2.440221,0 3.5249,2.6967 6.608195,3.46336 3.083304,0.76664 7.935567,0 11.646377,0 3.710805,0 7.345238,1.4334 10.618482,0 3.273234,-1.43337 4.132924,-7.95324 7.640116,-7.95324 3.507193,0 3.444571,5.47885 7.640143,7.31611 4.195542,1.83731 12.629922,0.63713 16.575182,0.63713 3.94524,0 4.67456,1.29855 7.09623,0 2.42168,-1.29856 2.56069,-7.85768 5.58399,-7.85768 3.02329,0 2.57732,6.24546 5.58397,7.85768 3.00666,1.61222 11.00137,0 11.00137,0"
       style="color:#000000;display:inline;overflow:visible;visibility:visible;fill:none;stroke:#008000;stroke-width:0.34014037px;stroke-linecap:butt;stroke-linejoin:miter;stroke-miterlimit:4;stroke-dasharray:none;stroke-dashoffset:0;stroke-opacity:1;marker:none;enable-background:accumulate" />
    <rect
       ry="0.12201317"
       rx="0.15444037"
       y="216.92076"
       x="51.488205"
       height="2.8345742"
       width="8.093235"
       id="rect841"
       style="color:#000000;display:inline;overflow:visible;visibility:visible;fill:#008000;fill-opacity:1;fill-rule:nonzero;stroke:#cccccc;stroke-width:0.27585045;stroke-linecap:butt;stroke-linejoin:miter;stroke-miterlimit:4;stroke-dasharray:none;stroke-dashoffset:0;stroke-opacity:1;marker:none;enable-background:accumulate" />
    <rect
       ry="0.11986756"
       rx="0.17684175"
       y="216.94556"
       x="124.37016"
       height="2.7847276"
       width="9.267148"
       id="rect843"
       style="color:#000000;display:inline;overflow:visible;visibility:visible;fill:#008000;fill-opacity:1;fill-rule:nonzero;stroke:#cccccc;stroke-width:0.2925722;stroke-linecap:butt;stroke-linejoin:miter;stroke-miterlimit:4;stroke-dasharray:none;stroke-dashoffset:0;stroke-opacity:1;marker:none;enable-background:accumulate" />
    <path
       sodipodi:nodetypes="cc"
       style="fill:none;stroke:#999999;stroke-width:0.4837046px;stroke-linecap:butt;stroke-linejoin:miter;stroke-opacity:1"
       d="M 44.302818,220.02765 H 147.80851"
       id="path845"
       inkscape:connector-curvature="0" />
    <rect
       ry="0.11986756"
       rx="0.2128717"
       y="228.29474"
       x="87.96785"
       height="2.7847307"
       width="13.831991"
       id="rect847"
       style="color:#000000;display:inline;overflow:visible;visibility:visible;fill:#0000aa;fill-opacity:1;fill-rule:nonzero;stroke:#cccccc;stroke-width:0.32099602;stroke-linecap:butt;stroke-linejoin:miter;stroke-miterlimit:4;stroke-dasharray:none;stroke-dashoffset:0;stroke-opacity:1;marker:none;enable-background:accumulate" />
    <path
       style="color:#000000;display:inline;overflow:visible;visibility:visible;fill:none;stroke:#0000aa;stroke-width:0.34016955px;stroke-linecap:butt;stroke-linejoin:miter;stroke-miterlimit:4;stroke-dasharray:none;stroke-dashoffset:0;stroke-opacity:1;marker:none;enable-background:accumulate"
       d="m 47.417761,230.10764 c 0,0 2.446285,0.30128 3.402715,0 4.170422,-1.31369 3.821941,-6.64647 6.262588,-6.64647 2.440647,0 3.525521,5.90653 6.609355,6.67318 3.083843,0.76663 7.936956,0 11.648415,0 3.711455,0 7.346524,1.43338 10.620342,0 3.273806,-1.43337 4.133647,-7.95321 7.641453,-7.95321 3.507807,0 7.182761,7.08666 10.220231,7.95321 3.03748,0.86655 10.05339,-0.63713 13.99933,-0.63713 3.94594,0 4.67538,1.93566 7.09748,0.63713 2.4221,-1.29855 2.56114,-5.00449 5.58496,-5.00449 3.02382,0 2.57778,3.39227 5.58495,5.00449 3.0072,1.6122 11.0033,0 11.0033,0"
       id="path849"
       inkscape:connector-curvature="0"
       sodipodi:nodetypes="cazzzzzzzzzzc" />
    <rect
       style="color:#000000;display:inline;overflow:visible;visibility:visible;fill:#0000aa;fill-opacity:1;fill-rule:nonzero;stroke:#cccccc;stroke-width:0.27585045;stroke-linecap:butt;stroke-linejoin:miter;stroke-miterlimit:4;stroke-dasharray:none;stroke-dashoffset:0;stroke-opacity:1;marker:none;enable-background:accumulate"
       id="rect851"
       width="8.093235"
       height="2.8345742"
       x="53.075703"
       y="228.26985"
       rx="0.15444037"
       ry="0.12201317" />
    <rect
       style="color:#000000;display:inline;overflow:visible;visibility:visible;fill:#0000aa;fill-opacity:1;fill-rule:nonzero;stroke:#cccccc;stroke-width:0.26935041;stroke-linecap:butt;stroke-linejoin:miter;stroke-miterlimit:4;stroke-dasharray:none;stroke-dashoffset:0;stroke-opacity:1;marker:none;enable-background:accumulate"
       id="rect853"
       width="7.8544402"
       height="2.7847276"
       x="126.72692"
       y="228.29474"
       rx="0.14988354"
       ry="0.11986756" />
    <path
       inkscape:connector-curvature="0"
       id="path855"
       d="M 45.890316,231.37676 H 149.39602"
       style="fill:none;stroke:#999999;stroke-width:0.4837046px;stroke-linecap:butt;stroke-linejoin:miter;stroke-opacity:1"
       sodipodi:nodetypes="cc" />
    <rect
       style="color:#000000;display:inline;overflow:visible;visibility:visible;fill:#550000;fill-opacity:1;fill-rule:nonzero;stroke:#cccccc;stroke-width:0.24160017;stroke-linecap:butt;stroke-linejoin:miter;stroke-miterlimit:4;stroke-dasharray:none;stroke-dashoffset:0;stroke-opacity:1;marker:none;enable-background:accumulate"
       id="rect857"
       width="6.620656"
       height="2.8641233"
       x="62.723736"
       y="238.69048"
       rx="0.11724766"
       ry="0.12328513" />
    <path
       sodipodi:nodetypes="cazczzzaaaac"
       inkscape:connector-curvature="0"
       id="path859"
       d="m 45.830212,240.55462 c 0,0 2.445888,0.30061 3.402163,0 4.169747,-1.31078 3.821322,-6.63177 6.261573,-6.63177 2.440252,0 3.52495,4.54692 6.608285,5.31187 1.603304,0 1.979844,-2.2008 4.224098,-2.2008 2.244254,0 3.546283,2.75961 4.903769,2.75961 1.357486,0 9.978278,-0.35295 13.98482,0.78773 4.006532,1.14067 20.6722,0 31.00832,0 2.36543,0 4.85126,0.36733 7.09633,0 2.20372,-0.36056 3.26221,-2.05327 5.58406,-2.05327 2.32184,0 3.38033,1.69271 5.58404,2.05327 3.4806,0.56946 11.00151,0 11.00151,0"
       style="color:#000000;display:inline;overflow:visible;visibility:visible;fill:#000000;fill-opacity:0;stroke:#550000;stroke-width:0.33976558px;stroke-linecap:butt;stroke-linejoin:miter;stroke-miterlimit:4;stroke-dasharray:none;stroke-dashoffset:0;stroke-opacity:1;marker:none;enable-background:accumulate" />
    <rect
       ry="0.12201317"
       rx="0.15444037"
       y="238.70531"
       x="51.488205"
       height="2.8345742"
       width="8.093235"
       id="rect861"
       style="color:#000000;display:inline;overflow:visible;visibility:visible;fill:#550000;fill-opacity:1;fill-rule:nonzero;stroke:#cccccc;stroke-width:0.27585045;stroke-linecap:butt;stroke-linejoin:miter;stroke-miterlimit:4;stroke-dasharray:none;stroke-dashoffset:0;stroke-opacity:1;marker:none;enable-background:accumulate" />
    <rect
       ry="0.11986756"
       rx="0.10990272"
       y="238.73018"
       x="126.12408"
       height="2.7847276"
       width="5.7593007"
       id="rect863"
       style="color:#000000;display:inline;overflow:visible;visibility:visible;fill:#550000;fill-opacity:1;fill-rule:nonzero;stroke:#cccccc;stroke-width:0.23064545;stroke-linecap:butt;stroke-linejoin:miter;stroke-miterlimit:4;stroke-dasharray:none;stroke-dashoffset:0;stroke-opacity:1;marker:none;enable-background:accumulate" />
    <path
       sodipodi:nodetypes="cc"
       style="fill:none;stroke:#999999;stroke-width:0.4837046px;stroke-linecap:butt;stroke-linejoin:miter;stroke-opacity:1"
       d="M 44.302816,241.81216 H 147.80851"
       id="path865"
       inkscape:connector-curvature="0" />
    <rect
       style="color:#000000;display:inline;overflow:visible;visibility:visible;fill:#000000;fill-opacity:1;fill-rule:nonzero;stroke:#cccccc;stroke-width:0.27585045;stroke-linecap:butt;stroke-linejoin:miter;stroke-miterlimit:4;stroke-dasharray:none;stroke-dashoffset:0;stroke-opacity:1;marker:none;enable-background:accumulate"
       id="rect871"
       width="8.093235"
       height="2.8345742"
       x="51.488205"
       y="286.15936"
       rx="0.15444037"
       ry="0.12201317" />
  </g>
</svg>
